<svg viewBox="0 0 101 101" fill="none" xmlns="http://www.w3.org/2000/svg">
<g clip-path="url(#clip0_1_22)">
<path d="M58.8333 46.3334C58.8323 45.2298 58.5186 44.1492 57.9287 43.2166C57.3387 42.284 56.4967 41.5377 55.5 41.064V38.8334C55.5 38.3913 55.3244 37.9674 55.0118 37.6548C54.6993 37.3423 54.2754 37.1667 53.8333 37.1667C53.3913 37.1667 52.9674 37.3423 52.6548 37.6548C52.3423 37.9674 52.1667 38.3913 52.1667 38.8334V40.5H48.8333V38.8334C48.8333 38.3913 48.6577 37.9674 48.3452 37.6548C48.0326 37.3423 47.6087 37.1667 47.1667 37.1667C46.7246 37.1667 46.3007 37.3423 45.9882 37.6548C45.6756 37.9674 45.5 38.3913 45.5 38.8334V40.5H43.8333C43.3913 40.5 42.9674 40.6756 42.6548 40.9882C42.3423 41.3007 42.1667 41.7247 42.1667 42.1667V58.8334C42.1667 59.2754 42.3423 59.6993 42.6548 60.0119C42.9674 60.3244 43.3913 60.5 43.8333 60.5H45.5V62.1667C45.5 62.6087 45.6756 63.0326 45.9882 63.3452C46.3007 63.6578 46.7246 63.8334 47.1667 63.8334C47.6087 63.8334 48.0326 63.6578 48.3452 63.3452C48.6577 63.0326 48.8333 62.6087 48.8333 62.1667V60.5H52.1667V62.1667C52.1667 62.6087 52.3423 63.0326 52.6548 63.3452C52.9674 63.6578 53.3913 63.8334 53.8333 63.8334C54.2754 63.8334 54.6993 63.6578 55.0118 63.3452C55.3244 63.0326 55.5 62.6087 55.5 62.1667V59.9361C56.3494 59.5339 57.0889 58.9322 57.6554 58.1824C58.222 57.4326 58.5987 56.5569 58.7536 55.63C58.9085 54.7031 58.837 53.7524 58.545 52.8592C58.253 51.9659 57.7493 51.1565 57.0769 50.5C57.6331 49.958 58.075 49.31 58.3767 48.5944C58.6784 47.8788 58.8336 47.11 58.8333 46.3334ZM55.5 54.6667C55.4993 55.3295 55.2357 55.965 54.767 56.4337C54.2983 56.9023 53.6628 57.166 53 57.1667H45.5V52.1667H53C53.6628 52.1674 54.2983 52.431 54.767 52.8997C55.2357 53.3684 55.4993 54.0039 55.5 54.6667ZM45.5 48.8334V43.8334H53C53.663 43.8334 54.2989 44.0967 54.7678 44.5656C55.2366 45.0344 55.5 45.6703 55.5 46.3334C55.5 46.9964 55.2366 47.6323 54.7678 48.1011C54.2989 48.57 53.663 48.8334 53 48.8334H45.5Z" fill="black"/>
<path d="M99.6908 36.9292C99.9376 36.7811 100.142 36.5716 100.284 36.3212C100.425 36.0707 100.5 35.7878 100.5 35.5V25.5C100.5 25.2122 100.425 24.9293 100.284 24.6788C100.142 24.4284 99.9376 24.2189 99.6908 24.0708L91.3575 19.0708C91.0985 18.9154 90.8021 18.8333 90.5 18.8333C90.1979 18.8333 89.9015 18.9154 89.6425 19.0708L82.3542 23.4436L60.5 9.7846V7.16668C60.5 6.87887 60.4255 6.59597 60.2837 6.34551C60.1419 6.09506 59.9376 5.88559 59.6908 5.73752L51.3575 0.737516C51.0985 0.582098 50.8021 0.5 50.5 0.5C50.1979 0.5 49.9015 0.582098 49.6425 0.737516L41.3092 5.73752C41.0624 5.88559 40.8581 6.09506 40.7163 6.34551C40.5745 6.59597 40.5 6.87887 40.5 7.16668V9.7846L18.6458 23.4436L11.3575 19.0708C11.0985 18.9154 10.8021 18.8333 10.5 18.8333C10.1979 18.8333 9.90153 18.9154 9.6425 19.0708L1.30917 24.0708C1.06237 24.2189 0.858129 24.4284 0.716328 24.6788C0.574526 24.9293 0.499997 25.2122 0.5 25.5V35.5C0.499997 35.7878 0.574526 36.0707 0.716328 36.3212C0.858129 36.5716 1.06237 36.7811 1.30917 36.9292L8.83333 41.4438V59.5563L1.30917 64.0709C1.06237 64.2189 0.858129 64.4284 0.716328 64.6788C0.574526 64.9293 0.499997 65.2122 0.5 65.5V75.5C0.499997 75.7878 0.574526 76.0707 0.716328 76.3212C0.858129 76.5716 1.06237 76.7811 1.30917 76.9292L9.6425 81.9292C9.90153 82.0846 10.1979 82.1667 10.5 82.1667C10.8021 82.1667 11.0985 82.0846 11.3575 81.9292L18.6458 77.5565L40.5 91.2154V93.8334C40.5 94.1212 40.5745 94.4041 40.7163 94.6545C40.8581 94.905 41.0624 95.1144 41.3092 95.2625L49.6425 100.263C49.9015 100.418 50.1979 100.5 50.5 100.5C50.8021 100.5 51.0985 100.418 51.3575 100.263L59.6908 95.2625C59.9376 95.1144 60.1419 94.905 60.2837 94.6545C60.4255 94.4041 60.5 94.1212 60.5 93.8334V91.2154L82.3542 77.5565L89.6423 81.9292C89.9013 82.0846 90.1977 82.1667 90.4998 82.1667C90.8019 82.1667 91.0983 82.0846 91.3573 81.9292L99.6906 76.9292C99.9375 76.7811 100.142 76.5717 100.284 76.3212C100.425 76.0708 100.5 75.7878 100.5 75.5V65.5C100.5 65.2122 100.425 64.9293 100.284 64.6788C100.142 64.4284 99.9376 64.2189 99.6908 64.0709L92.1667 59.5563V41.4438L99.6908 36.9292ZM92.1667 37.5565V31.4438L97.1667 28.4438V34.5565L92.1667 37.5565ZM90.5 68.5565L85.406 65.5L90.5 62.4436L95.594 65.5L90.5 68.5565ZM83.8333 28.2988L88.8333 31.4238V37.5565L83.8333 34.5565V28.2988ZM90.5 22.4436L95.594 25.5L90.5177 28.5456L85.5279 25.4269L90.5 22.4436ZM50.5 86.8896L45.406 83.8334L50.5 80.7769L55.594 83.8334L50.5 86.8896ZM50.5 67.1667C47.2036 67.1667 43.9813 66.1892 41.2405 64.3578C38.4997 62.5265 36.3635 59.9235 35.102 56.8781C33.8405 53.8326 33.5105 50.4815 34.1536 47.2485C34.7967 44.0155 36.384 41.0458 38.7149 38.7149C41.0458 36.384 44.0155 34.7967 47.2485 34.1536C50.4815 33.5105 53.8326 33.8406 56.8781 35.102C59.9235 36.3635 62.5265 38.4997 64.3578 41.2405C66.1892 43.9813 67.1667 47.2037 67.1667 50.5C67.1616 54.9187 65.4041 59.1551 62.2796 62.2796C59.155 65.4041 54.9187 67.1617 50.5 67.1667ZM43.8333 10.1104L48.8333 13.1104V19.2231L43.8333 16.2231V10.1104ZM50.5 4.11043L55.594 7.16668L50.5 10.2229L45.406 7.16668L50.5 4.11043ZM57.1667 10.1104V16.2231L52.1667 19.2231V13.1102L57.1667 10.1104ZM10.5 68.5563L5.40604 65.5L10.5 62.4436L15.594 65.5L10.5 68.5563ZM10.5 22.4436L15.4721 25.4269L10.4823 28.5456L5.40604 25.5L10.5 22.4436ZM17.1667 28.2988V34.5565L12.1667 37.5565V31.4238L17.1667 28.2988ZM3.83333 34.5565V28.4438L8.83333 31.4438V37.5565L3.83333 34.5565ZM3.83333 68.4438L8.83333 71.4438V77.5565L3.83333 74.5565V68.4438ZM12.1667 77.5565V71.4436L17.1667 68.4436V74.5563L12.1667 77.5565ZM20.5 74.7844V65.5C20.5 65.2122 20.4255 64.9293 20.2837 64.6788C20.1419 64.4284 19.9376 64.2189 19.6908 64.0709L12.1667 59.5563V41.4438L19.6908 36.9292C19.9376 36.7811 20.1419 36.5716 20.2837 36.3212C20.4255 36.0707 20.5 35.7878 20.5 35.5V26.2154L40.5 13.7154V17.1667C40.5 17.4545 40.5745 17.7374 40.7163 17.9879C40.8581 18.2383 41.0624 18.4478 41.3092 18.5958L48.8333 23.1104V30.57C43.836 30.9892 39.1785 33.2705 35.7838 36.9619C32.3892 40.6532 30.5052 45.4851 30.5052 50.5C30.5052 55.5149 32.3892 60.3468 35.7838 64.0382C39.1785 67.7295 43.836 70.0108 48.8333 70.43V77.8896L41.3092 82.4042C41.0624 82.5523 40.8581 82.7617 40.7163 83.0122C40.5745 83.2626 40.5 83.5455 40.5 83.8334V87.2846L20.5 74.7844ZM43.8333 86.7771L48.8333 89.7771V95.8898L43.8333 92.8898V86.7771ZM52.1667 95.8898V89.7769L57.1667 86.7769V92.8896L52.1667 95.8898ZM59.6908 82.4042L52.1667 77.8896V70.43C57.164 70.0108 61.8215 67.7295 65.2162 64.0382C68.6108 60.3468 70.4948 55.5149 70.4948 50.5C70.4948 45.4851 68.6108 40.6532 65.2162 36.9619C61.8215 33.2705 57.164 30.9892 52.1667 30.57V23.1104L59.6908 18.5958C59.9376 18.4478 60.1419 18.2383 60.2837 17.9879C60.4255 17.7374 60.5 17.4545 60.5 17.1667V13.7154L80.5 26.2154V35.5C80.5 35.7878 80.5745 36.0707 80.7163 36.3212C80.8581 36.5716 81.0624 36.7811 81.3092 36.9292L88.8333 41.4438V59.5563L81.3092 64.0709C81.0624 64.2189 80.8581 64.4284 80.7163 64.6788C80.5745 64.9293 80.5 65.2122 80.5 65.5V74.7844L60.5 87.2844V83.8334C60.5 83.5455 60.4255 83.2626 60.2837 83.0122C60.1419 82.7617 59.9376 82.5523 59.6908 82.4042ZM83.8333 68.4438L88.8333 71.4438V77.5565L83.8333 74.5565V68.4438ZM92.1667 77.5565V71.4436L97.1667 68.4436V74.5563L92.1667 77.5565Z" fill="black"/>
</g>
<defs>
<clipPath id="clip0_1_22">
<rect width="100" height="100" fill="white" transform="translate(0.5 0.5)"/>
</clipPath>
</defs>
</svg>
