<svg width="100" height="101" viewBox="0 0 100 101" fill="none" xmlns="http://www.w3.org/2000/svg">
<g clip-path="url(#clip0_24_127)">
<path d="M86.5185 28.9431C86.1161 28.2215 85.6741 27.5013 85.2259 26.8089L87.4938 25.2633C87.9704 26.0051 88.442 26.7684 88.8716 27.5418L86.5185 28.9431ZM12.0877 31.6127L9.64074 30.3886C9.25803 31.1912 8.9 31.9988 8.5605 32.8215L11.0704 33.9038C11.3889 33.1291 11.728 32.3654 12.0877 31.6127ZM9.55803 70.7519C9.9284 71.5418 10.337 72.3646 10.7667 73.1241L13.1383 71.7532C12.7395 71.019 12.3617 70.2785 12.0037 69.5228L9.55803 70.7519ZM17.6543 22.857L15.5679 21.0608C15.0086 21.7507 14.4716 22.4431 13.9469 23.1608L16.1321 24.8279C16.6235 24.1557 17.1259 23.5013 17.6543 22.857ZM82.3259 18.6595C81.7218 18.019 81.1004 17.3962 80.4617 16.7912L78.6173 18.8431C79.2185 19.419 79.8025 19.9988 80.3741 20.6051L82.3259 18.6595ZM64.0852 6.89876C63.2519 6.62282 62.4284 6.36712 61.5827 6.13927L60.8827 8.83674C61.6778 9.05573 62.4506 9.29497 63.2346 9.55319L64.0852 6.89876ZM34.0012 10.5988L32.963 8.02028C32.1593 8.35952 31.358 8.72028 30.5802 9.10763L31.763 11.6215C32.4951 11.257 33.2432 10.919 34.0012 10.5988ZM15.4432 80.1013C15.9938 80.781 16.5753 81.4696 17.1716 82.1089L19.1543 80.1975C18.5963 79.5848 18.0556 78.9557 17.5321 78.3102L15.4432 80.1013ZM73.9025 11.6418C73.1617 11.1675 72.4132 10.7152 71.6568 10.2848L70.342 12.7291C71.0593 13.1367 71.763 13.5595 72.458 14.0076L73.9025 11.6418ZM25.1025 15.7102L23.4975 13.4595C22.8123 13.9722 22.0741 14.5367 21.4346 15.1051L23.1728 17.257C23.8 16.7203 24.4444 16.2051 25.1025 15.7102ZM81.3494 79.6342L83.3753 81.5C83.9568 80.8342 84.5222 80.1583 85.0679 79.4595L82.9383 77.7215C82.4222 78.3798 81.8975 79.0114 81.3494 79.6342ZM87.2198 71.0836L89.621 72.4C90.0321 71.6152 90.4198 70.814 90.7864 70.0064L88.3173 68.8317C87.9728 69.5937 87.6062 70.3456 87.2198 71.0836ZM73.658 86.5026L75.1914 88.8102C75.9111 88.3038 76.6148 87.7886 77.3074 87.2443L75.6494 85.0304C74.9951 85.5405 74.3383 86.0279 73.658 86.5026ZM64.5901 91.2798L65.5358 93.8975C66.3514 93.5895 67.1589 93.2566 67.958 92.8988L66.8667 90.3418C66.1185 90.6777 65.3597 90.9903 64.5901 91.2798ZM32.7815 93.2203C33.5864 93.5633 34.3963 93.8785 35.2185 94.1734L36.1136 91.5367C35.3395 91.2595 34.5778 90.9621 33.8198 90.6405L32.7815 93.2203ZM23.3333 87.738C24.0358 88.2696 24.7494 88.7734 25.479 89.2659L26.9605 86.9253C26.2753 86.4659 25.6025 85.9899 24.9469 85.4912L23.3333 87.738ZM71.6383 58.0684H71.6247C71.379 58.7763 70.9433 59.3987 70.3678 59.8638C69.7923 60.3289 69.1003 60.6179 68.3716 60.6975C68.3644 61.7708 67.9452 62.7981 67.2049 63.557C66.6582 64.1026 65.9733 64.4802 65.2279 64.6471C64.4825 64.814 63.7065 64.7635 62.9877 64.5013C62.7881 65.0418 62.4783 65.5325 62.079 65.9405C61.511 66.5064 60.7947 66.8908 60.0174 67.0468C59.2402 67.2027 58.4354 67.1236 57.7012 66.819C57.4542 67.4466 57.0594 68.0018 56.5522 68.4349C56.045 68.8681 55.4411 69.1658 54.7944 69.3014C54.1477 69.437 53.4783 69.4064 52.8459 69.2122C52.2136 69.018 51.6379 68.6664 51.1704 68.1886L49.9765 66.9646L47.3346 69.6734C46.854 70.174 46.255 70.5382 45.5961 70.7306C44.9373 70.923 44.241 70.937 43.5753 70.7713C42.9096 70.6055 42.2972 70.2656 41.7978 69.7848C41.2984 69.304 40.9291 68.6987 40.7259 68.0279C40.3816 68.1309 40.0253 68.1858 39.6667 68.1912C38.7112 68.1966 37.7862 67.8467 37.063 67.2065C36.3398 66.5662 35.8674 65.6789 35.7333 64.7089C35.6877 64.7089 35.6444 64.7228 35.5988 64.7228C34.6541 64.7262 33.7394 64.3838 33.019 63.7573C32.2986 63.1308 31.82 62.2612 31.6691 61.3051C31.5988 61.3051 31.5321 61.3266 31.4605 61.3266C30.5421 61.3285 29.6514 61.0048 28.9393 60.4103C28.2271 59.8158 27.7374 58.987 27.5531 58.0646H23.9642C23.7859 58.0646 23.6093 58.0286 23.4445 57.9586C23.2797 57.8886 23.13 57.7861 23.0039 57.6568C22.8778 57.5275 22.7778 57.374 22.7095 57.205C22.6413 57.0361 22.6062 56.855 22.6062 56.6722V38.8988C22.6061 38.5336 22.746 38.183 22.9956 37.9226C23.2452 37.6621 23.5847 37.5127 23.9407 37.5064L31.5025 37.3595L38.0951 31.6798C38.3408 31.4687 38.6511 31.3531 38.9716 31.3532H61.0333C61.3539 31.3531 61.6642 31.4687 61.9099 31.6798L68.5012 37.3595L76.0642 37.5064C76.4203 37.5127 76.7597 37.6621 77.0093 37.9226C77.259 38.183 77.3988 38.5336 77.3988 38.8988V56.6734C77.3988 57.0427 77.2557 57.3969 77.001 57.658C76.7463 57.9191 76.4009 58.0659 76.0407 58.0659L71.6383 58.0684ZM60.5346 34.1443H48.2716H48.242C47.7794 34.2204 47.3511 34.4415 47.0161 34.7772C46.9827 34.8203 46.9469 34.8608 46.9099 34.9038L41.2037 40.7545C40.9112 41.0668 40.7497 41.4842 40.754 41.9172C40.7583 42.3501 40.9279 42.7641 41.2265 43.0703C41.5251 43.3765 41.9289 43.5504 42.3512 43.5548C42.7735 43.5592 43.1806 43.3936 43.4852 43.0937L48.5889 37.8595C48.8447 37.5983 49.1908 37.4513 49.5519 37.4507H54.042C54.4004 37.4505 54.7443 37.5957 54.9988 37.8545L72.1975 55.2772H74.6741V40.2684L67.9667 40.1418C67.655 40.1363 67.3546 40.021 67.116 39.8152L60.5346 34.1443ZM32.3593 58.1595L38.7099 51.6507C38.8372 51.5319 38.9397 51.3879 39.0111 51.2274C39.0826 51.0669 39.1216 50.8932 39.1258 50.7168C39.1299 50.5404 39.0991 50.365 39.0353 50.2011C38.9714 50.0372 38.8758 49.8884 38.7543 49.7635C38.6327 49.6386 38.4877 49.5402 38.328 49.4744C38.1683 49.4086 37.9973 49.3767 37.8252 49.3806C37.6532 49.3845 37.4837 49.4241 37.327 49.4971C37.1703 49.57 37.0297 49.6748 36.9136 49.8051L30.5654 56.3152C30.3287 56.5605 30.1959 56.8917 30.1959 57.2367C30.1959 57.5818 30.3287 57.913 30.5654 58.1583C30.808 58.3927 31.1287 58.5234 31.4621 58.5236C31.7955 58.5238 32.1164 58.3936 32.3593 58.1595ZM36.5 61.5557L36.842 61.2064L41.4099 56.5228H41.4173L42.2111 55.7076C42.3891 55.5253 42.5103 55.2929 42.5593 55.0399C42.6084 54.7868 42.583 54.5246 42.4865 54.2863C42.3899 54.0481 42.2266 53.8446 42.0171 53.7017C41.8076 53.5588 41.5615 53.4829 41.3099 53.4836C41.1434 53.4831 40.9785 53.5163 40.8247 53.5815C40.6708 53.6467 40.5311 53.7425 40.4136 53.8633L39.0321 55.2798L34.7012 59.7203C34.4629 59.9652 34.329 60.2971 34.329 60.6431C34.329 60.9891 34.4629 61.3209 34.7012 61.5659C34.9459 61.7994 35.2683 61.9284 35.6026 61.9265C35.9369 61.9246 36.2578 61.792 36.5 61.5557ZM39.6667 65.4026C39.8339 65.4036 39.9997 65.3706 40.1544 65.3054C40.3092 65.2402 40.4497 65.1441 40.5679 65.0228L41.679 63.8836L41.6852 63.876L44.6123 60.8747L45.1333 60.3405C45.3702 60.0948 45.5031 59.7632 45.5031 59.4177C45.5031 59.0722 45.3702 58.7407 45.1333 58.495C44.8939 58.2522 44.5707 58.116 44.234 58.116C43.8972 58.116 43.574 58.2522 43.3346 58.495L38.7667 63.1785C38.5887 63.3608 38.4676 63.593 38.4185 63.846C38.3694 64.0989 38.3947 64.361 38.4911 64.5992C38.5875 64.8374 38.7506 65.0409 38.9599 65.1839C39.1692 65.3269 39.4152 65.403 39.6667 65.4026ZM48.7074 63.7734C48.7077 63.5155 48.6334 63.2632 48.4939 63.0486C48.3543 62.8339 48.1558 62.6665 47.9235 62.5676C47.6911 62.4687 47.4353 62.4426 47.1886 62.4928C46.9418 62.543 46.715 62.6671 46.537 62.8494L45.5358 63.876L43.6086 65.8481C43.381 66.0952 43.2564 66.4237 43.2613 66.7635C43.2662 67.1034 43.4003 67.4279 43.6349 67.668C43.8696 67.9081 44.1863 68.0448 44.5178 68.0492C44.8493 68.0535 45.1693 67.9251 45.4099 67.6912L48.337 64.6899C48.4546 64.5697 48.5478 64.4268 48.6114 64.2696C48.675 64.1123 48.7076 63.9437 48.7074 63.7734ZM54.8963 64.3684L45.2765 54.5051C45.3004 54.8279 45.2872 55.1525 45.237 55.4722C45.9247 55.6478 46.5537 56.0098 47.058 56.5203C47.4304 56.9 47.7253 57.3518 47.9258 57.8494C48.1263 58.3471 48.2283 58.8806 48.2259 59.419C48.2259 59.5329 48.2037 59.6405 48.1951 59.7519C48.9785 59.905 49.6988 60.2967 50.2617 60.876C50.6336 61.2558 50.9283 61.7074 51.1287 62.2048C51.3292 62.7021 51.4315 63.2353 51.4296 63.7734C51.4262 63.9968 51.4051 64.2194 51.3667 64.4393L53.0951 66.2114C53.2127 66.3345 53.353 66.4324 53.5077 66.4996C53.6625 66.5668 53.8287 66.6018 53.9968 66.6028C54.1648 66.6038 54.3314 66.5706 54.4869 66.5052C54.6424 66.4398 54.7837 66.3435 54.9027 66.2218C55.0217 66.1002 55.1161 65.9555 55.1803 65.7963C55.2445 65.637 55.2773 65.4663 55.2768 65.294C55.2763 65.1217 55.2425 64.9512 55.1774 64.7923C55.1123 64.6334 55.016 64.4894 54.8963 64.3684ZM68.9704 55.9329L53.4827 40.2405H50.1161L45.4099 45.0659C44.5967 45.8996 43.4938 46.368 42.3438 46.368C41.1938 46.368 40.0909 45.8996 39.2778 45.0659C38.4646 44.2321 38.0078 43.1013 38.0078 41.9222C38.0078 40.7431 38.4646 39.6123 39.2778 38.7785L43.8012 34.1405H39.4654L32.8827 39.8102C32.6445 40.0156 32.3446 40.1309 32.0333 40.1367L25.3259 40.2633V55.2772H27.9728C28.1493 54.934 28.373 54.6185 28.637 54.3405L34.984 47.8304C35.7338 47.0632 36.7499 46.6324 37.8093 46.6324C38.8686 46.6324 39.8847 47.0632 40.6346 47.8304C41.01 48.2157 41.3063 48.6742 41.5063 49.1788C41.7062 49.6833 41.8057 50.2238 41.7988 50.7684C42.5768 50.8548 43.3119 51.1774 43.9099 51.695C43.9665 51.5711 44.041 51.4568 44.1309 51.3557C44.257 51.2258 44.407 51.1227 44.5722 51.0523C44.7373 50.982 44.9144 50.9458 45.0932 50.9458C45.272 50.9458 45.4491 50.982 45.6143 51.0523C45.7794 51.1227 45.9294 51.2258 46.0556 51.3557L56.8198 62.3924L58.3482 63.9583C58.5916 64.1942 58.9138 64.3256 59.2488 64.3256C59.5837 64.3256 59.906 64.1942 60.1494 63.9583C60.3863 63.7133 60.5193 63.3823 60.5193 63.0374C60.5193 62.6924 60.3863 62.3614 60.1494 62.1165L49.3852 51.081C49.1298 50.8193 48.9863 50.4644 48.9861 50.0941C48.986 49.7239 49.1293 49.3689 49.3846 49.107C49.6398 48.8451 49.986 48.698 50.3471 48.6978C50.7082 48.6977 51.0545 48.8447 51.3099 49.1064L62.079 60.1519L63.4741 61.581C63.7173 61.8169 64.0393 61.9483 64.3741 61.9483C64.7088 61.9483 65.0309 61.8169 65.2741 61.581C65.5125 61.3361 65.6463 61.0043 65.6463 60.6583C65.6463 60.3123 65.5125 59.9804 65.2741 59.7355L65.0765 59.5342L54.321 48.495C54.1945 48.3654 54.0942 48.2115 54.0257 48.0422C53.9573 47.8729 53.922 47.6914 53.9219 47.5081C53.9219 47.3248 53.957 47.1432 54.0254 46.9739C54.0938 46.8045 54.194 46.6506 54.3204 46.5209C54.4467 46.3913 54.5968 46.2884 54.7619 46.2182C54.9271 46.148 55.1041 46.1118 55.2829 46.1118C55.4617 46.1117 55.6387 46.1477 55.8039 46.2178C55.9691 46.2879 56.1192 46.3907 56.2457 46.5203L67.0037 57.5507C67.2238 57.7817 67.5199 57.9206 67.8343 57.9404C68.1487 57.9603 68.459 57.8597 68.7052 57.6581C68.9513 57.4565 69.1156 57.1684 69.1662 56.8496C69.2168 56.5308 69.1501 56.2041 68.979 55.9329H68.9704ZM58.6333 85.3595C59.18 86.0629 59.5676 86.882 59.7681 87.7576C59.9685 88.6332 59.9769 89.5435 59.7926 90.4228L58.8346 95.3595C58.5977 96.722 57.9025 97.9561 56.8698 98.8473C55.8372 99.7384 54.5324 100.23 53.1827 100.237H46.8173C45.4676 100.23 44.1628 99.7384 43.1302 98.8473C42.0975 97.9561 41.4023 96.722 41.1654 95.3595L40.2074 90.4228C40.08 89.7713 40.0517 89.1035 40.1235 88.4431C34.3311 86.8267 28.9883 83.8423 24.5227 79.7289C20.0572 75.6154 16.593 70.4871 14.4074 64.7545C14.11 64.8059 13.809 64.833 13.5074 64.8355H7.14198C5.79234 64.829 4.48766 64.3374 3.45515 63.4462C2.42264 62.555 1.7277 61.3207 1.49136 59.9583L0.532102 55.0215C0.347786 54.1422 0.356167 53.2319 0.55664 52.3563C0.757113 51.4807 1.14468 50.6616 1.69136 49.9583C2.50343 48.8647 3.66984 48.1047 4.98025 47.8152C3.97339 46.5169 3.44975 44.8937 3.50295 43.2358C3.55616 41.578 4.18275 39.9936 5.27069 38.766C6.35862 37.5383 7.83697 36.7474 9.4414 36.5348C11.0458 36.3221 12.6717 36.7015 14.0284 37.6051C16.2466 31.1595 20.0753 25.4234 25.1321 20.9696L26.9062 23.0861C21.857 27.5324 18.1341 33.3494 16.1654 39.8684C16.8873 41.0852 17.227 42.5001 17.1387 43.9215C17.0504 45.3429 16.5382 46.7021 15.6716 47.8152C16.9815 48.1051 18.1474 48.8651 18.9593 49.9583C19.5059 50.6616 19.8935 51.4807 20.094 52.3563C20.2945 53.2319 20.3028 54.1422 20.1185 55.0215L19.1605 59.9583C18.883 61.4331 18.0826 62.7504 16.9136 63.6557C18.9495 69.039 22.1984 73.8521 26.395 77.702C30.5916 81.5519 35.617 84.3294 41.0605 85.8076C41.158 85.6557 41.2568 85.5038 41.3679 85.3583C42.1812 84.2653 43.3476 83.5051 44.658 83.214C43.8594 82.1833 43.3604 80.9426 43.2184 79.6344C43.0764 78.3261 43.2971 77.0033 43.8552 75.8179C44.4133 74.6324 45.2861 73.6324 46.3735 72.9326C47.4608 72.2327 48.7186 71.8615 50.0025 71.8615C51.2863 71.8615 52.5441 72.2327 53.6315 72.9326C54.7188 73.6324 55.5916 74.6324 56.1497 75.8179C56.7078 77.0033 56.9285 78.3261 56.7865 79.6344C56.6445 80.9426 56.1455 82.1833 55.3469 83.214C56.6563 83.5058 57.8215 84.2665 58.6333 85.3595ZM6.22099 43.4785C6.22075 44.3107 6.46119 45.1243 6.9119 45.8163C7.36262 46.5084 8.00337 47.0479 8.75313 47.3666C9.50289 47.6853 10.328 47.7689 11.1241 47.6068C11.9202 47.4447 12.6515 47.0442 13.2256 46.4559C13.7997 45.8676 14.1907 45.118 14.3493 44.3019C14.5079 43.4857 14.4269 42.6397 14.1165 41.8708C13.8061 41.1018 13.2803 40.4445 12.6056 39.982C11.9309 39.5194 11.1376 39.2724 10.3259 39.2722C9.23796 39.2732 8.1948 39.7166 7.42525 40.5051C6.65571 41.2937 6.22262 42.363 6.22099 43.4785ZM13.5049 62.0443C14.2235 62.0324 14.9152 61.7626 15.4598 61.2817C16.0043 60.8009 16.3671 60.1395 16.4852 59.4127L17.4444 54.476C17.5507 53.9902 17.5488 53.4861 17.439 53.0011C17.3291 52.5161 17.1141 52.0628 16.8099 51.6747C16.5409 51.2968 16.1876 50.9903 15.7796 50.7809C15.3715 50.5715 14.9205 50.4652 14.4642 50.4709H6.18519C5.72904 50.4653 5.27818 50.5714 4.87016 50.7806C4.46214 50.9898 4.10878 51.2959 3.83951 51.6734C3.53598 52.0621 3.3214 52.5157 3.21158 53.0008C3.10175 53.4858 3.09948 53.9899 3.20494 54.476L4.1642 59.4127C4.28086 60.1403 4.6428 60.8028 5.18695 61.2848C5.7311 61.7669 6.42296 62.0379 7.14198 62.0507L13.5049 62.0443ZM45.8938 78.8798C45.8941 79.7118 46.1349 80.5251 46.5859 81.2168C47.0368 81.9085 47.6777 82.4476 48.4274 82.7659C49.1771 83.0843 50.0021 83.1676 50.798 83.0053C51.5939 82.843 52.325 82.4424 52.8989 81.8542C53.4727 81.2659 53.8637 80.5164 54.0222 79.7005C54.1807 78.8845 54.0997 78.0386 53.7895 77.2698C53.4792 76.501 52.9536 75.8437 52.2791 75.3812C51.6046 74.9186 50.8115 74.6714 50 74.6709C48.9125 74.6723 47.8698 75.1156 47.1006 75.9039C46.3313 76.6921 45.8983 77.7609 45.8963 78.876L45.8938 78.8798ZM56.484 87.081C56.2148 86.7035 55.8614 86.3974 55.4533 86.1885C55.0453 85.9795 54.5944 85.8736 54.1383 85.8798H45.8605C45.4045 85.8742 44.9538 85.9802 44.5458 86.1892C44.1378 86.3981 43.7844 86.7039 43.5148 87.081C43.2111 87.4694 42.9964 87.9227 42.8865 88.4076C42.7767 88.8925 42.7745 89.3965 42.8803 89.8823L43.8383 94.819C43.9571 95.5456 44.3204 96.2066 44.865 96.6871C45.4097 97.1676 46.1013 97.4373 46.8198 97.4494H53.1852C53.9036 97.4373 54.5953 97.1676 55.1399 96.6871C55.6846 96.2066 56.0479 95.5456 56.1667 94.819L57.1247 89.8823C57.2312 89.3956 57.2291 88.8906 57.1186 88.4049C57.0081 87.9192 56.792 87.4653 56.4864 87.0772L56.484 87.081ZM99.4642 55.0304L98.5062 59.9671C98.2686 61.3277 97.5733 62.5599 96.5414 63.4494C95.5095 64.3388 94.2061 64.8293 92.858 64.8355H86.4926C86.1926 64.833 85.8933 64.8059 85.5975 64.7545C83.7019 69.7695 80.8252 74.3336 77.1444 78.1659L75.2074 76.2026C78.6482 72.6208 81.3324 68.3506 83.0926 63.6583C81.9213 62.7532 81.1189 61.4348 80.8407 59.9583L79.8827 55.0215C79.6982 54.1423 79.7064 53.232 79.9067 52.3564C80.1069 51.4808 80.4943 50.6617 81.0407 49.9583C81.8533 48.8647 83.0201 48.1048 84.3309 47.8152C83.4643 46.7023 82.9522 45.3433 82.8639 43.9221C82.7756 42.501 83.1153 41.0863 83.837 39.8697C82.0477 34.0446 78.8626 28.7723 74.5732 24.535C70.2837 20.2977 65.0266 17.2305 59.2827 15.614C59.8951 16.8528 60.0751 18.2695 59.7926 19.6279L58.8346 24.5583C58.5985 25.9213 57.9035 27.1562 56.8708 28.0478C55.838 28.9395 54.5329 29.4315 53.1827 29.438H46.8173C45.4671 29.4315 44.162 28.9395 43.1292 28.0478C42.0965 27.1562 41.4015 25.9213 41.1654 24.5583L40.2074 19.6279C40.0236 18.7486 40.0322 17.8385 40.2324 16.963C40.4326 16.0875 40.8196 15.2684 41.3654 14.5646C42.1789 13.472 43.3453 12.7122 44.6556 12.4215C43.8731 11.4094 43.3792 10.1949 43.2286 8.91269C43.0779 7.63045 43.2763 6.33047 43.8019 5.15674C44.3275 3.98302 45.1597 2.98136 46.2063 2.26273C47.2529 1.54409 48.4731 1.13653 49.7318 1.08518C50.9904 1.03384 52.2383 1.34071 53.3373 1.97181C54.4363 2.60291 55.3435 3.5336 55.9584 4.6608C56.5732 5.788 56.8718 7.06771 56.8209 8.35817C56.7701 9.64864 56.3719 10.8995 55.6704 11.9722C62.5052 13.0504 68.9288 16.0025 74.2618 20.5162C79.5948 25.0299 83.639 30.9374 85.9667 37.614C87.323 36.7092 88.9489 36.3286 90.5538 36.5404C92.1587 36.7521 93.6377 37.5423 94.7264 38.7697C95.8151 39.9971 96.4424 41.5816 96.4962 43.2397C96.5499 44.8978 96.0266 46.5215 95.0198 47.8203C96.3299 48.1098 97.4961 48.8693 98.3086 49.9621C98.8553 50.6657 99.2427 51.485 99.443 52.3608C99.6433 53.2367 99.6513 54.1472 99.4667 55.0266L99.4642 55.0304ZM45.8963 8.08104C45.8961 8.91328 46.1365 9.7269 46.5873 10.419C47.0381 11.1111 47.6789 11.6506 48.4287 11.9693C49.1786 12.2879 50.0037 12.3714 50.7998 12.2092C51.596 12.047 52.3273 11.6464 52.9013 11.058C53.4754 10.4696 53.8663 9.71986 54.0248 8.90364C54.1832 8.08741 54.102 7.24133 53.7914 6.47242C53.4809 5.70351 52.9549 5.0463 52.28 4.58391C51.6051 4.12152 50.8117 3.87471 50 3.87471C48.9121 3.87572 47.8691 4.31917 47.0998 5.10775C46.3304 5.89634 45.8976 6.96565 45.8963 8.08104ZM56.4864 16.2785C56.2172 15.9011 55.8638 15.5953 55.4557 15.3865C55.0476 15.1777 54.5967 15.0721 54.1407 15.0785H45.8605C45.4044 15.0726 44.9536 15.1785 44.5456 15.3875C44.1376 15.5965 43.7841 15.9024 43.5148 16.2798C43.2111 16.6683 42.9963 17.1219 42.8865 17.607C42.7767 18.0921 42.7745 18.5963 42.8803 19.0823L43.8383 24.0127C43.9565 24.7399 44.3195 25.4016 44.8642 25.8828C45.4089 26.3641 46.1008 26.6344 46.8198 26.6469H53.1852C53.9041 26.6344 54.596 26.3641 55.1407 25.8828C55.6854 25.4016 56.0484 24.7399 56.1667 24.0127L57.1247 19.0823C57.2306 18.5958 57.2281 18.0911 57.1176 17.6057C57.0071 17.1203 56.7914 16.6667 56.4864 16.2785ZM85.5716 43.4785C85.5714 44.3107 85.8118 45.1243 86.2625 45.8163C86.7132 46.5084 87.354 47.0479 88.1037 47.3666C88.8535 47.6853 89.6786 47.7689 90.4747 47.6068C91.2708 47.4447 92.0021 47.0442 92.5762 46.4559C93.1503 45.8676 93.5413 45.118 93.6999 44.3019C93.8585 43.4857 93.7775 42.6397 93.4671 41.8708C93.1567 41.1018 92.631 40.4445 91.9562 39.982C91.2815 39.5194 90.4882 39.2724 89.6765 39.2722C88.5886 39.2732 87.5454 39.7166 86.7759 40.5051C86.0063 41.2937 85.5732 42.363 85.5716 43.4785ZM96.163 51.6798C95.894 51.3018 95.5407 50.9954 95.1326 50.7859C94.7246 50.5765 94.2736 50.4702 93.8173 50.476H85.5346C85.0784 50.4701 84.6275 50.5762 84.2194 50.7854C83.8113 50.9946 83.458 51.3008 83.1889 51.6785C82.8847 52.0669 82.6698 52.5204 82.5599 53.0056C82.4501 53.4907 82.4481 53.995 82.5543 54.481L83.5136 59.4177C83.6313 60.1446 83.9939 60.8061 84.5382 61.2872C85.0825 61.7682 85.7741 62.0384 86.4926 62.0507H92.858C93.5766 62.0388 94.2683 61.7689 94.8128 61.2881C95.3574 60.8072 95.7202 60.1458 95.8383 59.419L96.7963 54.4823C96.9034 53.9964 96.902 53.492 96.7924 53.0067C96.6827 52.5215 96.4675 52.0679 96.163 51.6798Z" fill="black"/>
</g>
<defs>
<clipPath id="clip0_24_127">
<rect width="100" height="100" fill="white" transform="translate(0 0.5)"/>
</clipPath>
</defs>
</svg>
