<svg viewBox="0 0 101 103" fill="none" xmlns="http://www.w3.org/2000/svg">
<g clip-path="url(#clip0_3_63)">
<path d="M6.03978 45.5593V94.3267C6.04193 96.2097 6.7909 98.015 8.12236 99.3464C9.45383 100.678 11.2591 101.427 13.1421 101.429H87.7159C89.5989 101.427 91.4041 100.678 92.7356 99.3464C94.0671 98.015 94.816 96.2097 94.8182 94.3267V45.5593C96.3626 44.5163 97.6445 43.13 98.5635 41.5088C99.6313 39.6522 100.18 37.5427 100.153 35.4012C100.125 33.2597 99.5223 31.165 98.4073 29.3364L94.8182 23.3517V9.09946C94.816 7.21649 94.0671 5.41125 92.7356 4.07978C91.4041 2.74831 89.5989 1.99934 87.7159 1.99719H13.1421C11.2591 1.99934 9.45383 2.74831 8.12236 4.07978C6.7909 5.41125 6.04193 7.21649 6.03978 9.09946V23.3508L2.4505 29.3347C1.33551 31.1636 0.732724 33.2586 0.705267 35.4004C0.677809 37.5421 1.22669 39.6519 2.29443 41.5088C3.21348 43.13 4.4954 44.5163 6.03978 45.5593ZM38.0243 29.8298L37.2649 36.1491C37.1192 37.3593 36.5353 38.4743 35.6235 39.2832C34.7117 40.0921 33.5351 40.5391 32.3162 40.5395H30.9603C30.1603 40.5392 29.3722 40.3464 28.6624 39.9773C27.9526 39.6083 27.3421 39.0739 26.8823 38.4193C26.4225 37.7646 26.127 37.009 26.0207 36.2161C25.9144 35.4232 26.0005 34.6164 26.2717 33.8638L28.6055 27.3753H38.3182L38.0243 29.8298ZM17.5012 37.245C17.1526 38.2092 16.5156 39.0426 15.6768 39.6321C14.8379 40.2215 13.8379 40.5384 12.8126 40.5395C11.9303 40.5396 11.0638 40.3054 10.3016 39.861C9.53936 39.4165 8.9088 38.7777 8.47432 38.0097C8.03983 37.2418 7.81698 36.3723 7.82855 35.49C7.84011 34.6078 8.08567 33.7444 8.54014 32.9881L11.9075 27.3753H21.0558L17.5012 37.245ZM33.3946 94.3267C33.04 94.3268 32.6896 94.2502 32.3674 94.1021C32.0451 93.9541 31.7587 93.7381 31.5278 93.4689C31.2969 93.1998 31.1269 92.8839 31.0295 92.5429C30.9321 92.202 30.9097 91.844 30.9636 91.4935L35.4476 62.3665H65.4103L69.8944 91.4917C69.9485 91.8423 69.9262 92.2005 69.8289 92.5417C69.7316 92.8828 69.5617 93.1989 69.3308 93.4682C69.0998 93.7375 68.8134 93.9537 68.491 94.1019C68.1687 94.2501 67.8181 94.3268 67.4634 94.3267H33.3946ZM76.6854 94.3267C77.0307 93.0525 77.1083 91.7206 76.9134 90.4149L72.36 60.8233C72.1286 59.2722 71.346 57.8565 70.1556 56.8355C68.9652 55.8145 67.4468 55.2567 65.8785 55.2642H34.9794C33.4112 55.2567 31.8928 55.8145 30.7024 56.8355C29.512 57.8565 28.7294 59.2722 28.4979 60.8233L23.9446 90.4167C23.7497 91.7218 23.8273 93.0531 24.1726 94.3267H13.1421V47.6158C14.8141 47.5665 16.4577 47.1705 17.9686 46.4527C19.4795 45.7349 20.8249 44.7111 21.9193 43.4461C23.0393 44.7505 24.4256 45.7999 25.9851 46.5236C27.5446 47.2473 29.241 47.6286 30.9602 47.6418H32.3161C33.9212 47.6366 35.5089 47.3101 36.9859 46.6816C38.4628 46.0531 39.7989 45.1353 40.9155 43.9823C42.0335 45.133 43.3697 46.0494 44.8459 46.6777C46.3222 47.3061 47.9089 47.6338 49.5133 47.6418H51.3444C52.9488 47.6339 54.5356 47.3062 56.012 46.6779C57.4883 46.0495 58.8245 45.1331 59.9425 43.9823C61.0591 45.1353 62.3953 46.0532 63.8722 46.6817C65.3491 47.3102 66.9369 47.6366 68.542 47.6418H69.898C71.6171 47.6287 73.3135 47.2475 74.873 46.5238C76.4325 45.8002 77.8188 44.7509 78.9388 43.4465C80.0334 44.7113 81.3787 45.7349 82.8896 46.4526C84.4005 47.1703 86.044 47.5664 87.7159 47.6158V94.3267H76.6854ZM55.3846 27.3753L56.2932 34.9597C56.3781 35.6595 56.3134 36.3695 56.1034 37.0425C55.8934 37.7155 55.5429 38.3363 55.0751 38.8637C54.6073 39.3912 54.0329 39.8133 53.3898 40.1022C52.7466 40.3911 52.0495 40.5402 51.3445 40.5395H49.5135C48.8085 40.5402 48.1113 40.3911 47.4682 40.1022C46.8251 39.8133 46.2507 39.3912 45.7829 38.8637C45.3151 38.3363 44.9646 37.7155 44.7546 37.0425C44.5446 36.3695 44.4799 35.6595 44.5647 34.9597L45.4733 27.3753H55.3846ZM88.9505 27.3753L92.3178 32.9899C92.7722 33.7461 93.0176 34.6093 93.0291 35.4914C93.0406 36.3735 92.8177 37.2429 92.3832 38.0107C91.9487 38.7784 91.3182 39.4171 90.5561 39.8614C89.794 40.3057 88.9275 40.5398 88.0454 40.5396C87.0193 40.538 86.0186 40.2206 85.1792 39.6306C84.3397 39.0406 83.7023 38.2065 83.3533 37.2416L82.4508 34.7352L82.462 34.6805C82.448 33.8833 82.1606 33.1151 81.648 32.5044L81.2726 31.4606L79.8021 27.3754L88.9505 27.3753ZM72.2525 27.3753L74.5899 33.8655C74.86 34.6183 74.9452 35.425 74.8383 36.2177C74.7313 37.0103 74.4354 37.7656 73.9754 38.4199C73.5154 39.0741 72.9049 39.6083 72.1952 39.9772C71.4856 40.3461 70.6976 40.5389 69.8978 40.5395H68.5419C67.3227 40.539 66.1459 40.0919 65.234 39.2826C64.3221 38.4733 63.7384 37.3579 63.5931 36.1474L62.8162 29.685L62.5397 27.3753H72.2525ZM87.7159 9.09946V20.273H13.1421V9.09946H87.7159Z" fill="black"/>
<path d="M21.3367 17.0895C21.8613 17.0796 22.3713 16.9149 22.8027 16.6161C23.234 16.3174 23.5676 15.8979 23.7614 15.4104C23.9553 14.9228 24.0008 14.3888 23.8923 13.8755C23.7839 13.3621 23.5262 12.8922 23.1517 12.5247C22.7771 12.1572 22.3024 11.9086 21.7871 11.8099C21.2717 11.7112 20.7387 11.7669 20.2549 11.97C19.7711 12.1731 19.3581 12.5145 19.0676 12.9515C18.7771 13.3885 18.6222 13.9015 18.6222 14.4262C18.6291 15.1393 18.919 15.8204 19.428 16.3199C19.9371 16.8193 20.6236 17.0962 21.3367 17.0895Z" fill="black"/>
<path d="M28.576 17.0895C30.0751 17.0895 31.2905 15.8971 31.2905 14.4262C31.2905 12.9552 30.0751 11.7628 28.576 11.7628C27.0768 11.7628 25.8615 12.9552 25.8615 14.4262C25.8615 15.8971 27.0768 17.0895 28.576 17.0895Z" fill="black"/>
<path d="M35.8152 17.0895C36.3398 17.0794 36.8497 16.9146 37.2809 16.6157C37.7122 16.3169 38.0456 15.8974 38.2393 15.4098C38.433 14.9222 38.4785 14.3882 38.3699 13.8749C38.2613 13.3616 38.0036 12.8918 37.629 12.5244C37.2545 12.157 36.7797 11.9084 36.2644 11.8098C35.7491 11.7112 35.2162 11.7669 34.7324 11.9701C34.2486 12.1732 33.8357 12.5146 33.5452 12.9516C33.2548 13.3885 33.0999 13.9015 33.0999 14.4262C33.1032 14.7794 33.1761 15.1285 33.3143 15.4535C33.4526 15.7785 33.6536 16.0731 33.9057 16.3204C34.1579 16.5678 34.4563 16.763 34.784 16.895C35.1116 17.0269 35.462 17.093 35.8152 17.0895Z" fill="black"/>
<path d="M65.0427 17.9773H75.9008C76.8426 17.9773 77.7458 17.6032 78.4118 16.9372C79.0778 16.2713 79.4519 15.368 79.4519 14.4262C79.4519 13.4844 79.0778 12.5811 78.4118 11.9152C77.7458 11.2492 76.8426 10.8751 75.9008 10.8751H65.0427C64.1009 10.8751 63.1977 11.2492 62.5317 11.9152C61.8657 12.5811 61.4916 13.4844 61.4916 14.4262C61.4916 15.368 61.8657 16.2713 62.5317 16.9372C63.1977 17.6032 64.1009 17.9773 65.0427 17.9773Z" fill="black"/>
<path d="M57.9405 67.284C57.4741 67.2839 57.0123 67.3756 56.5814 67.5541C56.1505 67.7325 55.7589 67.9941 55.4292 68.3238C55.0994 68.6536 54.8378 69.0451 54.6594 69.476C54.481 69.9069 54.3892 70.3688 54.3893 70.8351V72.3367C54.3893 73.3871 53.9721 74.3944 53.2294 75.1371C52.4867 75.8798 51.4793 76.2971 50.429 76.2971C49.3787 76.2971 48.3713 75.8798 47.6286 75.1371C46.8859 74.3944 46.4687 73.3871 46.4687 72.3367V70.8351C46.4687 69.8933 46.0945 68.9901 45.4286 68.3241C44.7626 67.6581 43.8594 67.284 42.9175 67.284C41.9757 67.284 41.0725 67.6581 40.4065 68.3241C39.7405 68.9901 39.3664 69.8933 39.3664 70.8351V72.3367C39.3664 75.2707 40.5319 78.0845 42.6066 80.1592C44.6812 82.2338 47.495 83.3993 50.429 83.3993C53.363 83.3993 56.1768 82.2338 58.2514 80.1592C60.3261 78.0845 61.4916 75.2707 61.4916 72.3367V70.8351C61.4917 70.3688 61.4 69.9069 61.2216 69.476C61.0431 69.0451 60.7816 68.6536 60.4518 68.3238C60.122 67.994 59.7305 67.7325 59.2996 67.5541C58.8687 67.3756 58.4068 67.2839 57.9405 67.284Z" fill="black"/>
</g>
<defs>
<clipPath id="clip0_3_63">
<rect width="100" height="101.136" fill="white" transform="translate(0.5 0.931824)"/>
</clipPath>
</defs>
</svg>
