<svg viewBox="0 0 101 91" fill="none" xmlns="http://www.w3.org/2000/svg">
<g clip-path="url(#clip0_2_23)">
<path d="M33.4523 75.8744H41.1372C41.3182 75.8744 41.4973 75.8388 41.6645 75.7695C41.8317 75.7003 41.9836 75.5988 42.1115 75.4708C42.2395 75.3429 42.341 75.191 42.4102 75.0238C42.4795 74.8566 42.5151 74.6774 42.5151 74.4965V58.3337C42.5151 58.1527 42.4795 57.9736 42.4102 57.8064C42.341 57.6392 42.2395 57.4873 42.1115 57.3594C41.9836 57.2314 41.8317 57.1299 41.6645 57.0607C41.4973 56.9914 41.3182 56.9558 41.1372 56.9558H33.4523C33.0869 56.9558 32.7364 57.101 32.478 57.3594C32.2196 57.6178 32.0744 57.9682 32.0744 58.3337V74.4965C32.0744 74.8619 32.2196 75.2124 32.478 75.4708C32.7364 75.7292 33.0869 75.8744 33.4523 75.8744ZM34.8291 59.7116H39.7605V73.1197H34.8291V59.7116ZM64.8523 56.9569H57.1663C56.801 56.9573 56.4509 57.1026 56.1927 57.3609C55.9345 57.6193 55.7895 57.9696 55.7895 58.3348V74.4976C55.7895 74.8629 55.9345 75.2132 56.1927 75.4716C56.4509 75.7299 56.801 75.8752 57.1663 75.8756H64.8523C65.2177 75.8752 65.568 75.73 65.8263 75.4716C66.0847 75.2133 66.2299 74.863 66.2302 74.4976V58.3348C66.2302 57.9693 66.0851 57.6187 65.8267 57.3601C65.5683 57.1015 65.2179 56.9573 64.8523 56.9569ZM63.4756 73.1197H58.5442V59.7104H63.4756V73.1197ZM87.3872 56.9569H79.7012C79.3358 56.9573 78.9855 57.1025 78.7272 57.3609C78.4688 57.6192 78.3236 57.9695 78.3233 58.3348V74.4976C78.3236 74.863 78.4688 75.2133 78.7272 75.4716C78.9855 75.73 79.3358 75.8752 79.7012 75.8756H87.3872C87.7524 75.8752 88.1026 75.7299 88.3608 75.4716C88.6189 75.2132 88.7639 74.8629 88.7639 74.4976V58.3348C88.7641 58.1539 88.7286 57.9747 88.6595 57.8075C88.5904 57.6402 88.489 57.4882 88.3612 57.3602C88.2334 57.2321 88.0815 57.1305 87.9144 57.0611C87.7473 56.9917 87.5682 56.9571 87.3872 56.9569ZM86.0093 73.1197H81.0814V59.7104H86.0128L86.0093 73.1197ZM95.3639 82.0453H94.8232V51.3476C95.1134 51.4091 95.4092 51.4403 95.7058 51.4407C95.7919 51.4407 95.8744 51.4407 95.9523 51.4337C97.068 51.3637 98.1117 50.8589 98.8593 50.0279C99.2616 49.5893 99.5694 49.0726 99.7636 48.5099C99.9577 47.9473 100.034 47.3507 99.9878 46.7574C99.9415 46.164 99.7737 45.5864 99.4948 45.0607C99.2158 44.5349 98.8317 44.0721 98.3663 43.7011L98.3442 43.6814L77.2977 25.2849C76.0787 24.2111 74.5085 23.6211 72.884 23.6265C71.2595 23.6318 69.6933 24.2321 68.4814 25.3139L61.7128 31.3604L54.764 25.2849C53.5448 24.211 51.9744 23.621 50.3497 23.6263C48.725 23.6317 47.1586 24.232 45.9465 25.3139L39.1791 31.3604L32.2291 25.2849C31.0101 24.2111 29.4399 23.6211 27.8154 23.6265C26.1909 23.6318 24.6247 24.2321 23.4128 25.3139L2.86512 43.6755C1.86881 44.4285 1.20886 45.5434 1.02791 46.779C0.956972 47.3212 0.997309 47.872 1.14645 48.3981C1.2956 48.9241 1.55042 49.4141 1.89535 49.8383C2.36735 50.4239 2.99208 50.8675 3.70047 51.1201C4.40886 51.3727 5.17331 51.4245 5.9093 51.2697V82.0453H5.62907C4.51085 82.0638 3.44468 82.521 2.66043 83.3183C1.87619 84.1156 1.43668 85.1892 1.43668 86.3075C1.43668 87.4259 1.87619 88.4995 2.66043 89.2968C3.44468 90.0941 4.51085 90.5513 5.62907 90.5697H95.3639C95.9296 90.5791 96.4914 90.4757 97.0167 90.2657C97.542 90.0557 98.0203 89.7433 98.4236 89.3466C98.8269 88.9499 99.1472 88.4768 99.3659 87.9551C99.5845 87.4333 99.6971 86.8732 99.6971 86.3075C99.6971 85.7418 99.5845 85.1817 99.3659 84.66C99.1472 84.1382 98.8269 83.6652 98.4236 83.2685C98.0203 82.8718 97.542 82.5593 97.0167 82.3493C96.4914 82.1393 95.9296 82.036 95.3639 82.0453ZM72.2895 82.0453V51.3476C72.5765 51.4096 72.8692 51.4411 73.1628 51.4418C74.0601 51.4319 74.9324 51.1448 75.6602 50.62C76.3881 50.0952 76.9359 49.3582 77.2287 48.5099C77.5215 47.6617 77.545 46.7437 77.2959 45.8816C77.0468 45.0195 76.5373 44.2555 75.8372 43.6942L75.8163 43.6744L67.9419 36.8L72.9093 32.2883L92.0651 49.7069V82.0453H72.2895ZM49.7547 51.3476C50.0455 51.4103 50.342 51.4427 50.6395 51.4442C51.0693 51.4435 51.4965 51.3764 51.9058 51.2453C52.6315 51.0133 53.2837 50.595 53.7971 50.032C54.3105 49.469 54.6671 48.7812 54.8314 48.0372C54.9893 47.244 54.9305 46.4229 54.6613 45.6602C54.392 44.8976 53.9221 44.2216 53.3012 43.7035L53.2791 43.6837L45.4105 36.8046L50.3779 32.293L69.5337 49.7116V82.0453H49.7547V51.3476ZM70.3233 27.3604C71.0337 26.7273 71.9515 26.3765 72.903 26.3744C73.8546 26.3723 74.7739 26.7189 75.4872 27.3488L96.5233 45.743C96.7811 45.9374 96.9812 46.1983 97.1021 46.4978C97.223 46.7973 97.26 47.124 97.2093 47.443C97.1475 47.7143 97.0165 47.965 96.829 48.1706C96.6416 48.3762 96.404 48.5298 96.1395 48.6162C95.8239 48.6957 95.4926 48.6876 95.1812 48.593C94.8699 48.4983 94.5901 48.3206 94.3721 48.079L73.8395 29.4081C73.5861 29.1777 73.2559 29.05 72.9134 29.05C72.5709 29.05 72.2406 29.1777 71.9872 29.4081L65.857 34.9756L63.8105 33.186L70.3233 27.3604ZM47.7895 27.3604C48.4999 26.7273 49.4177 26.3765 50.3693 26.3744C51.3209 26.3723 52.2402 26.7189 52.9535 27.3488L73.9884 45.743C74.1828 45.8713 74.3471 46.0403 74.4697 46.2383C74.5924 46.4363 74.6706 46.6587 74.6989 46.8899C74.7272 47.1211 74.705 47.3557 74.6337 47.5775C74.5624 47.7993 74.4437 48.0029 74.286 48.1743C74.1282 48.3457 73.9351 48.4808 73.72 48.5702C73.5049 48.6596 73.2729 48.7012 73.0402 48.6922C72.8074 48.6831 72.5794 48.6236 72.3719 48.5177C72.1644 48.4119 71.9823 48.2622 71.8384 48.079L51.3058 29.4081C51.0521 29.1779 50.7217 29.0503 50.3791 29.0503C50.0364 29.0503 49.7061 29.1779 49.4523 29.4081L43.3233 34.9756L41.2756 33.186L47.7895 27.3604ZM4.94186 48.5883C4.76728 48.573 4.59759 48.5226 4.44292 48.4402C4.28824 48.3578 4.15175 48.2451 4.0416 48.1087C3.93144 47.9724 3.84988 47.8153 3.80178 47.6468C3.75368 47.4783 3.74002 47.3018 3.76163 47.1279C3.86632 46.5896 4.17558 46.1128 4.62442 45.7976L4.67674 45.7535L25.2547 27.3604C25.9651 26.7273 26.8829 26.3765 27.8344 26.3744C28.786 26.3723 29.7054 26.7189 30.4186 27.3488L51.4546 45.743C51.7125 45.9374 51.9126 46.1983 52.0335 46.4978C52.1544 46.7973 52.1914 47.124 52.1407 47.443C52.0787 47.7142 51.9476 47.9648 51.7602 48.1704C51.5727 48.376 51.3353 48.5296 51.0709 48.6162C50.7553 48.6958 50.424 48.6878 50.1126 48.5931C49.8012 48.4985 49.5215 48.3207 49.3035 48.079L28.7709 29.4081C28.5177 29.1772 28.1874 29.0492 27.8448 29.0492C27.5021 29.0492 27.1718 29.1772 26.9186 29.4081L6.39419 48.0488C5.99691 48.4078 5.47716 48.6009 4.94186 48.5883ZM8.66279 49.7069L27.8407 32.2883L47 49.7069V82.0453H27.0605V58.3337C27.0602 57.9683 26.9149 57.618 26.6565 57.3597C26.3982 57.1014 26.0479 56.9561 25.6826 56.9558H12.9977C12.6324 56.9561 12.2823 57.1014 12.0241 57.3598C11.7659 57.6181 11.6209 57.9684 11.6209 58.3337V82.0453H8.66628L8.66279 49.7069ZM24.3023 82.0453H14.3721V59.7104H24.3023V82.0453ZM95.3605 87.8151H5.62907C5.24838 87.7871 4.89237 87.6161 4.63254 87.3365C4.37271 87.0568 4.22829 86.6892 4.22829 86.3075C4.22829 85.9258 4.37271 85.5582 4.63254 85.2786C4.89237 84.9989 5.24838 84.828 5.62907 84.8H95.3639C95.5712 84.7847 95.7794 84.8124 95.9756 84.8813C96.1717 84.9501 96.3515 85.0587 96.5037 85.2001C96.656 85.3416 96.7775 85.513 96.8605 85.7035C96.9436 85.8941 96.9864 86.0997 96.9864 86.3075C96.9864 86.5154 96.9436 86.721 96.8605 86.9115C96.7775 87.1021 96.656 87.2734 96.5037 87.4149C96.3515 87.5564 96.1717 87.665 95.9756 87.7338C95.7794 87.8027 95.5712 87.8303 95.3639 87.8151H95.3605ZM91.5581 5.69532C91.2534 4.38432 90.5668 3.19313 89.585 2.27241C88.6033 1.35168 87.3705 0.742784 86.0427 0.522724C84.7149 0.302663 83.3516 0.481326 82.1253 1.03611C80.899 1.5909 79.8648 2.49689 79.1535 3.63951C78.3277 3.30594 77.4393 3.15558 76.5498 3.19879C75.6602 3.242 74.7906 3.47777 74.001 3.8898C73.2114 4.30184 72.5207 4.88033 71.9765 5.58533C71.4322 6.29033 71.0475 7.10505 70.8488 7.97323C69.4859 8.05379 68.2006 8.63453 67.2394 9.60414C66.2782 10.5737 65.7086 11.864 65.6399 13.2276C65.5712 14.5912 66.0081 15.9322 66.867 16.9935C67.7259 18.0548 68.9463 18.7619 70.2942 18.979C70.3661 18.9906 70.4388 18.9965 70.5116 18.9965H91.5465C92.2485 18.9978 92.9422 18.8448 93.5785 18.5485C94.2149 18.2521 94.7783 17.8195 95.2291 17.2814C96.0055 16.352 96.5352 15.242 96.7694 14.0538C97.0037 12.8657 96.9348 11.6377 96.5693 10.4832C96.2037 9.32865 95.5532 8.28483 94.6778 7.44804C93.8024 6.61125 92.7303 6.00846 91.5605 5.69532H91.5581ZM93.1151 15.5116C92.9228 15.741 92.6824 15.9254 92.4109 16.0516C92.1395 16.1778 91.8435 16.2427 91.5442 16.2418H70.6279C70.2562 16.1805 69.9008 16.0445 69.5831 15.8421C69.2654 15.6398 68.992 15.3752 68.7792 15.0643C68.5665 14.7534 68.419 14.4026 68.3454 14.0332C68.2719 13.6638 68.2739 13.2832 68.3513 12.9146C68.4288 12.5459 68.5801 12.1968 68.7961 11.8882C69.0121 11.5796 69.2883 11.3179 69.6082 11.1189C69.928 10.9199 70.2848 10.7877 70.6571 10.7303C71.0294 10.6729 71.4095 10.6914 71.7744 10.7849C71.9779 10.8296 72.1889 10.8275 72.3916 10.7789C72.5942 10.7303 72.7831 10.6363 72.9442 10.5042C73.1053 10.372 73.2343 10.205 73.3215 10.0157C73.4087 9.82648 73.4518 9.61993 73.4477 9.4116V9.34067C73.4486 8.44107 73.8064 7.57857 74.4425 6.94246C75.0786 6.30634 75.9411 5.94857 76.8407 5.94764C77.5957 5.94506 78.3295 6.19745 78.9233 6.66392C79.0983 6.80005 79.3036 6.89195 79.5218 6.93182C79.7399 6.9717 79.9645 6.95838 80.1764 6.893C80.3883 6.82761 80.5813 6.71209 80.739 6.55622C80.8968 6.40036 81.0146 6.20875 81.0826 5.99764C81.3693 5.10051 81.9599 4.33149 82.7528 3.82311C83.5456 3.31472 84.4909 3.09882 85.4259 3.2126C86.3608 3.32639 87.2268 3.76273 87.8745 4.44644C88.5223 5.13015 88.9112 6.0184 88.9744 6.95811C88.9959 7.28111 89.1304 7.58626 89.3542 7.8201C89.5781 8.05395 89.8771 8.20159 90.1988 8.23718C90.9984 8.32592 91.7589 8.62978 92.3994 9.11644C93.04 9.60309 93.5366 10.2543 93.8364 11.0008C94.1362 11.7473 94.228 12.5611 94.102 13.3556C93.976 14.1502 93.637 14.8956 93.1209 15.5128L93.1151 15.5116Z" fill="black"/>
</g>
<defs>
<clipPath id="clip0_2_23">
<rect width="100" height="90.6977" fill="white" transform="translate(0.5 0.151123)"/>
</clipPath>
</defs>
</svg>
