<svg width="101" height="101" viewBox="0 0 101 101" fill="none" xmlns="http://www.w3.org/2000/svg">
<g clip-path="url(#clip0_23_90)">
<path d="M35.7713 8.63953H28.0194C27.6082 8.63953 27.2138 8.80287 26.9231 9.09362C26.6323 9.38438 26.469 9.77873 26.469 10.1899C26.469 10.6011 26.6323 10.9954 26.9231 11.2862C27.2138 11.577 27.6082 11.7403 28.0194 11.7403H34.2209V30.1942C35.2028 29.3973 36.2389 28.6698 37.3217 28.0168V10.1899C37.3217 9.77873 37.1583 9.3844 36.8676 9.09365C36.5768 8.8029 36.1825 8.63955 35.7713 8.63953Z" fill="black"/>
<path d="M88.4845 75.3062C88.8957 75.3062 89.29 75.1428 89.5808 74.8521C89.8715 74.5613 90.0349 74.167 90.0349 73.7558V69.8799C90.0349 69.4687 89.8715 69.0743 89.5808 68.7836C89.29 68.4928 88.8957 68.3295 88.4845 68.3295H72.3562C71.4584 69.4381 70.4754 70.4749 69.416 71.4302H86.9341V73.7558C86.9341 74.167 87.0975 74.5613 87.3882 74.8521C87.679 75.1428 88.0733 75.3062 88.4845 75.3062Z" fill="black"/>
<path d="M41.9729 83.0582V76.7637C40.9116 76.3725 39.8759 75.9148 38.8721 75.3936V81.5078H22.593C22.1818 81.5078 21.7875 81.6711 21.4967 81.9619C21.206 82.2526 21.0426 82.647 21.0426 83.0582C21.0426 83.4693 21.206 83.8637 21.4967 84.1544C21.7875 84.4452 22.1818 84.6085 22.593 84.6085H40.4225C40.8337 84.6085 41.228 84.4452 41.5187 84.1544C41.8095 83.8637 41.9728 83.4693 41.9729 83.0582Z" fill="black"/>
<path d="M32.1043 41.0735C32.4803 41.0764 32.8447 40.943 33.13 40.6981C33.4153 40.4531 33.6023 40.1131 33.6563 39.741C33.7103 39.3688 33.6278 38.9897 33.4239 38.6737C33.22 38.3577 32.9087 38.1262 32.5473 38.0221C32.186 37.9179 31.7992 37.9481 31.4584 38.1071C31.1176 38.2661 30.8459 38.5431 30.6935 38.8869C30.5412 39.2307 30.5185 39.618 30.6296 39.9773C30.7407 40.3365 30.9782 40.6434 31.2981 40.8411C31.5397 40.9927 31.8191 41.0732 32.1043 41.0735Z" fill="black"/>
<path d="M42.2908 71.9496C42.4328 71.6774 42.4908 71.3692 42.4576 71.0641C42.4244 70.7589 42.3015 70.4704 42.1043 70.2351C41.9072 69.9998 41.6447 69.8283 41.35 69.7422C41.0554 69.6561 40.7418 69.6593 40.449 69.7515C40.1562 69.8436 39.8973 70.0205 39.705 70.2598C39.5127 70.4991 39.3957 70.7901 39.3688 71.0958C39.3419 71.4016 39.4063 71.7085 39.5538 71.9777C39.7014 72.2469 39.9254 72.4663 40.1976 72.6082C40.4186 72.7205 40.6629 72.7791 40.9108 72.7793C41.1946 72.7801 41.4733 72.7032 41.7165 72.5569C41.9598 72.4107 42.1584 72.2006 42.2908 71.9496Z" fill="black"/>
<path d="M34.934 33.6547C34.7035 33.8653 34.5423 34.141 34.4717 34.4452C34.4011 34.7494 34.4245 35.0679 34.5388 35.3585C34.653 35.6491 34.8528 35.8983 35.1117 36.073C35.3705 36.2476 35.6763 36.3397 35.9886 36.3369C36.3795 36.3405 36.7568 36.1936 37.0424 35.9266C37.1924 35.7884 37.3137 35.6219 37.3993 35.4367C37.4848 35.2515 37.533 35.0513 37.541 34.8474C37.549 34.6436 37.5166 34.4402 37.4458 34.2488C37.375 34.0575 37.2671 33.8821 37.1284 33.7325C36.9896 33.583 36.8227 33.4623 36.6372 33.3775C36.4517 33.2926 36.2512 33.2452 36.0474 33.238C35.8435 33.2307 35.6402 33.2638 35.4492 33.3354C35.2581 33.4069 35.0831 33.5154 34.934 33.6547Z" fill="black"/>
<path d="M30.0732 43.6315C29.8772 43.5755 29.6721 43.5587 29.4696 43.582C29.2671 43.6053 29.0712 43.6683 28.893 43.7673C28.7148 43.8663 28.5579 43.9994 28.4312 44.1591C28.3045 44.3187 28.2105 44.5018 28.1545 44.6978C28.0985 44.8938 28.0817 45.0989 28.105 45.3014C28.1283 45.5039 28.1913 45.6998 28.2903 45.8779C28.3893 46.0561 28.5224 46.213 28.6821 46.3397C28.8417 46.4665 29.0248 46.5605 29.2208 46.6165C29.3598 46.6533 29.5031 46.6714 29.647 46.6702C30.0204 46.6698 30.381 46.5346 30.6626 46.2894C30.9443 46.0443 31.1279 45.7057 31.1798 45.336C31.2316 44.9662 31.1482 44.5902 30.9449 44.277C30.7416 43.9638 30.432 43.7346 30.0732 43.6315Z" fill="black"/>
<path d="M58.3451 31.5698C58.5119 31.6281 58.6876 31.6568 58.8644 31.6546C59.2491 31.6507 59.6184 31.5026 59.8992 31.2396C60.1801 30.9766 60.3521 30.6178 60.3812 30.2342C60.4104 29.8505 60.2945 29.4699 60.0566 29.1675C59.8187 28.8651 59.4761 28.6629 59.0963 28.6009C58.7166 28.5389 58.3274 28.6216 58.0057 28.8326C57.684 29.0437 57.4531 29.3677 57.3587 29.7407C57.2643 30.1137 57.3133 30.5086 57.4959 30.8472C57.6785 31.1859 57.9815 31.4437 58.3451 31.5698Z" fill="black"/>
<path d="M41.0039 32.8257C41.3422 32.8251 41.6711 32.7139 41.9404 32.509C42.2097 32.3041 42.4046 32.0168 42.4954 31.6908C42.5862 31.3649 42.568 31.0182 42.4435 30.7036C42.3189 30.3889 42.095 30.1237 41.8057 29.9481C41.5164 29.7726 41.1777 29.6965 40.8411 29.7314C40.5045 29.7663 40.1886 29.9103 39.9415 30.1414C39.6943 30.3725 39.5295 30.6781 39.4722 31.0115C39.4148 31.345 39.4681 31.6881 39.6238 31.9885C39.7545 32.2415 39.9525 32.4536 40.196 32.6013C40.4395 32.749 40.7191 32.8267 41.0039 32.8257Z" fill="black"/>
<path d="M59.2981 73.9337C59.6605 73.8016 59.9602 73.5384 60.1379 73.1961C60.3157 72.8538 60.3586 72.4573 60.2581 72.0849C60.1577 71.7125 59.9212 71.3913 59.5954 71.1849C59.2697 70.9784 58.8783 70.9016 58.4987 70.9696C58.119 71.0377 57.7787 71.2457 57.545 71.5525C57.3113 71.8593 57.2011 72.2426 57.2363 72.6267C57.2715 73.0108 57.4495 73.3677 57.7351 73.627C58.0207 73.8862 58.3931 74.0289 58.7788 74.0268C58.956 74.0256 59.1316 73.9942 59.2981 73.9337Z" fill="black"/>
<path d="M46.3682 74.802C46.4699 74.8239 46.5737 74.8343 46.6778 74.833C47.0753 74.8327 47.4575 74.6797 47.7454 74.4055C48.0332 74.1314 48.2047 73.7571 48.2244 73.36C48.2441 72.963 48.1105 72.5736 47.8511 72.2723C47.5918 71.971 47.2266 71.7809 46.831 71.7413C46.4355 71.7017 46.0399 71.8156 45.7259 72.0595C45.412 72.3033 45.2038 72.6585 45.1443 73.0516C45.0849 73.4446 45.1788 73.8455 45.4065 74.1713C45.6343 74.4971 45.9786 74.7229 46.3682 74.802Z" fill="black"/>
<path d="M70.4612 59.6471C70.3383 59.9282 70.3015 60.2394 70.3553 60.5414C70.4092 60.8434 70.5514 61.1227 70.7639 61.3439C70.9764 61.5651 71.2497 61.7184 71.5493 61.7844C71.8489 61.8503 72.1613 61.826 72.4471 61.7144C72.7329 61.6029 72.9792 61.4092 73.1549 61.1577C73.3306 60.9062 73.4278 60.6083 73.4343 60.3016C73.4407 59.9949 73.3561 59.6932 73.1912 59.4346C73.0262 59.1759 72.7883 58.972 72.5075 58.8485C72.13 58.6848 71.7032 58.677 71.3199 58.8265C70.9367 58.9761 70.628 59.2711 70.4612 59.6471Z" fill="black"/>
<path d="M69.895 66.4687C70.1168 66.1954 70.2392 65.8548 70.242 65.5028C70.2448 65.1508 70.1279 64.8083 69.9104 64.5315C69.6929 64.2547 69.3878 64.0601 69.0451 63.9796C68.7024 63.899 68.3425 63.9374 68.0245 64.0883C67.7065 64.2393 67.4493 64.4938 67.295 64.8102C67.1407 65.1266 67.0986 65.4861 67.1755 65.8296C67.2524 66.1731 67.4438 66.4803 67.7183 66.7007C67.9928 66.9211 68.334 67.0416 68.686 67.0425C68.9176 67.0433 69.1464 66.9921 69.3556 66.8928C69.5649 66.7935 69.7492 66.6486 69.895 66.4687Z" fill="black"/>
<path d="M73.3523 46.7247C72.9623 46.7759 72.6064 46.9736 72.3568 47.2777C72.1072 47.5817 71.9827 47.9693 72.0084 48.3618C72.0341 48.7543 72.2082 49.1224 72.4953 49.3912C72.7824 49.6601 73.1611 49.8097 73.5544 49.8096C73.6242 49.8108 73.6939 49.8083 73.7634 49.802C74.1698 49.7456 74.5375 49.5306 74.7858 49.204C75.0342 48.8773 75.1431 48.4656 75.0888 48.0588C75.0345 47.6521 74.8213 47.2834 74.4959 47.0334C74.1705 46.7834 73.7593 46.6724 73.3523 46.7247Z" fill="black"/>
<path d="M73.3296 55.9188C73.4015 55.9279 73.4737 55.9329 73.5461 55.9339C73.9388 55.9338 74.3168 55.7845 74.6036 55.5164C74.8905 55.2482 75.0648 54.8812 75.0915 54.4894C75.1181 54.0976 74.995 53.7104 74.7471 53.4059C74.4991 53.1014 74.1449 52.9024 73.7558 52.8491C73.554 52.8205 73.3485 52.832 73.1511 52.8829C72.9537 52.9339 72.7683 53.0233 72.6055 53.146C72.4427 53.2688 72.3058 53.4224 72.2025 53.5982C72.0992 53.7739 72.0316 53.9683 72.0036 54.1702C71.9755 54.3722 71.9876 54.5776 72.0391 54.7749C72.0906 54.9721 72.1805 55.1573 72.3037 55.3197C72.4269 55.4821 72.5809 55.6187 72.757 55.7215C72.933 55.8243 73.1276 55.8913 73.3296 55.9188Z" fill="black"/>
<path d="M54.329 73.6006C54.3078 73.2997 54.1993 73.0115 54.0166 72.7714C53.834 72.5313 53.5853 72.3497 53.3009 72.2489C53.0166 72.1481 52.709 72.1324 52.4159 72.2039C52.1228 72.2754 51.857 72.4309 51.6509 72.6513C51.4449 72.8717 51.3077 73.1474 51.2562 73.4446C51.2046 73.7419 51.2409 74.0477 51.3606 74.3246C51.4804 74.6015 51.6783 74.8375 51.9302 75.0035C52.1821 75.1695 52.477 75.2584 52.7786 75.2593C52.8151 75.2606 52.8517 75.258 52.8877 75.2517C53.0911 75.239 53.2899 75.186 53.4727 75.0959C53.6556 75.0058 53.8187 74.8804 53.9527 74.7268C54.0868 74.5733 54.189 74.3947 54.2536 74.2014C54.3182 74.0081 54.3438 73.8039 54.329 73.6006Z" fill="black"/>
<path d="M46.7709 30.7946C46.8752 30.7952 46.9792 30.7848 47.0813 30.7636C47.4715 30.6844 47.8165 30.4583 48.0447 30.132C48.2729 29.8056 48.3671 29.4041 48.3076 29.0103C48.2481 28.6166 48.0396 28.2607 47.7252 28.0164C47.4108 27.772 47.0145 27.6578 46.6182 27.6974C46.222 27.737 45.8561 27.9273 45.5962 28.2291C45.3363 28.5308 45.2024 28.9209 45.222 29.3186C45.2416 29.7163 45.4133 30.0913 45.7016 30.366C45.9898 30.6408 46.3727 30.7942 46.7709 30.7946Z" fill="black"/>
<path d="M64.2128 71.213C64.5328 71.2133 64.8447 71.1129 65.1045 70.9261C65.3543 70.7489 65.5461 70.5018 65.6555 70.2157C65.7649 69.9297 65.7871 69.6177 65.7193 69.3191C65.6515 69.0204 65.4968 68.7486 65.2745 68.5379C65.0523 68.3271 64.7727 68.187 64.4708 68.1351C64.169 68.0832 63.8586 68.122 63.5788 68.2464C63.299 68.3709 63.0623 68.5754 62.8987 68.8343C62.7351 69.0932 62.6519 69.3947 62.6595 69.7009C62.6672 70.007 62.7654 70.304 62.9417 70.5544C63.0856 70.7577 63.276 70.9236 63.4972 71.0382C63.7183 71.1528 63.9637 71.2127 64.2128 71.213Z" fill="black"/>
<path d="M52.8793 30.3987C53.1806 30.3976 53.475 30.3085 53.7264 30.1425C53.9779 29.9765 54.1754 29.7408 54.2949 29.4642C54.4143 29.1876 54.4505 28.8822 54.3989 28.5853C54.3473 28.2885 54.2103 28.0131 54.0045 27.793C53.7988 27.5729 53.5333 27.4176 53.2406 27.3462C52.9479 27.2747 52.6408 27.2902 52.3567 27.3907C52.0727 27.4913 51.8242 27.6725 51.6416 27.9122C51.4591 28.1518 51.3504 28.4396 51.3289 28.7401C51.3014 29.151 51.4376 29.5561 51.7078 29.8669C51.9781 30.1777 52.3603 30.3689 52.7711 30.3987H52.8793Z" fill="black"/>
<path d="M87.7093 27.2442V21.0426C87.7093 20.6314 87.546 20.2371 87.2552 19.9463C86.9644 19.6556 86.5701 19.4922 86.1589 19.4922C85.7477 19.4922 85.3534 19.6556 85.0626 19.9463C84.7719 20.2371 84.6085 20.6314 84.6085 21.0426V25.6938H79.124C79.9355 26.5971 80.5622 27.6505 80.9688 28.7946H86.1589C86.5701 28.7946 86.9644 28.6312 87.2552 28.3405C87.5459 28.0497 87.7093 27.6554 87.7093 27.2442Z" fill="black"/>
<path d="M82.2534 41.156C83.0096 40.3955 83.5237 39.4282 83.731 38.3759C83.9382 37.3237 83.8293 36.2336 83.4179 35.2432C83.0065 34.2528 82.3111 33.4063 81.4194 32.8105C80.5276 32.2147 79.4794 31.8963 78.407 31.8953C78.407 30.2506 77.7536 28.6732 76.5906 27.5102C75.4276 26.3472 73.8502 25.6938 72.2054 25.6938C70.5607 25.6938 68.9833 26.3472 67.8203 27.5102C66.6573 28.6732 66.0039 30.2506 66.0039 31.8953C64.5647 31.8953 63.1845 32.467 62.1669 33.4847C61.1492 34.5023 60.5775 35.8825 60.5775 37.3217C60.5775 38.7609 61.1492 40.1411 62.1669 41.1587C63.1845 42.1763 64.5647 42.748 66.0039 42.748H78.407C79.1213 42.7488 79.8288 42.6085 80.4888 42.3353C81.1489 42.0621 81.7485 41.6614 82.2534 41.156ZM63.6783 37.3217C63.6767 37.0158 63.7357 36.7127 63.852 36.4298C63.9683 36.1469 64.1395 35.8899 64.3558 35.6736C64.5721 35.4574 64.8291 35.2861 65.112 35.1698C65.3949 35.0535 65.698 34.9945 66.0039 34.9961H67.8253C68.0746 34.9961 68.3201 34.936 68.5412 34.8209C68.7623 34.7058 68.9524 34.539 69.0953 34.3348C69.2383 34.1306 69.3299 33.8949 69.3623 33.6477C69.3948 33.4006 69.3672 33.1493 69.2818 32.915C69.1637 32.5881 69.1037 32.243 69.1047 31.8953C69.1047 31.073 69.4313 30.2843 70.0128 29.7028C70.5944 29.1213 71.383 28.7946 72.2054 28.7946C73.0278 28.7946 73.8165 29.1213 74.398 29.7028C74.9795 30.2843 75.3062 31.073 75.3062 31.8953C75.3071 32.243 75.2472 32.5881 75.1291 32.915C75.0437 33.1493 75.0161 33.4006 75.0485 33.6477C75.081 33.8949 75.1726 34.1306 75.3155 34.3348C75.4584 34.539 75.6485 34.7058 75.8696 34.8209C76.0907 34.936 76.3363 34.9961 76.5856 34.9961H78.407C78.7124 34.9961 79.0148 35.0563 79.2969 35.1731C79.5791 35.29 79.8355 35.4613 80.0514 35.6773C80.2674 35.8932 80.4387 36.1496 80.5555 36.4317C80.6724 36.7139 80.7326 37.0163 80.7326 37.3217C80.7326 37.6271 80.6724 37.9295 80.5555 38.2117C80.4387 38.4938 80.2674 38.7502 80.0514 38.9661C79.8355 39.1821 79.5791 39.3534 79.2969 39.4702C79.0148 39.5871 78.7124 39.6473 78.407 39.6473H66.0039C65.3873 39.6466 64.7962 39.4014 64.3602 38.9654C63.9242 38.5294 63.679 37.9383 63.6783 37.3217Z" fill="black"/>
<path d="M68.3295 51.2752C68.3296 49.43 68.0289 47.5972 67.4392 45.8488H66.0039C65.3327 45.8463 64.6641 45.7642 64.0122 45.6043C64.5975 46.9117 64.9773 48.3015 65.1385 49.7248H58.2702C58.2064 47.7477 57.9978 45.7779 57.6458 43.8314C58.2893 43.542 58.9123 43.2092 59.5107 42.8353C58.8369 42.0416 58.3142 41.131 57.9686 40.1488C57.6239 40.3695 57.2686 40.566 56.9082 40.7492C56.6412 39.851 56.3062 38.9745 55.9061 38.1271C56.4943 38.3349 57.0682 38.5814 57.6238 38.8651C57.4093 37.743 57.4296 36.5887 57.6835 35.4749C55.2546 34.4877 52.6306 34.0743 50.0158 34.2669C47.401 34.4595 44.8659 35.2528 42.6078 36.5851C40.3496 37.9175 38.4294 39.7529 36.9964 41.9486C35.5635 44.1442 34.6565 46.6409 34.346 49.2444C34.626 49.4557 34.8938 49.6826 35.1481 49.924C35.3529 50.1161 35.5506 50.3157 35.7373 50.5253L35.746 50.5347C35.9402 50.7532 36.123 50.9818 36.2961 51.2179C36.3176 51.2473 36.3374 51.2778 36.3586 51.3074C36.5018 51.5076 36.6368 51.7138 36.7637 51.926C36.7937 51.9758 36.824 52.0253 36.853 52.0757C36.9934 52.3195 37.126 52.5684 37.2444 52.8256C37.3404 53.0342 37.4296 53.2467 37.5107 53.4631C37.4774 53.2526 37.4559 53.0384 37.43 52.8256H44.2802C44.3389 54.6157 44.5146 56.4001 44.8062 58.1674C44.1754 58.4514 43.5644 58.7776 42.9775 59.1439C43.3375 60.0976 43.5223 61.1085 43.5233 62.1279C43.5233 62.275 43.5093 62.4198 43.502 62.5658C44.1206 62.0698 44.7856 61.6346 45.4878 61.2662C45.7814 62.3524 46.1694 63.4109 46.6473 64.4295C45.5314 64.0385 44.4698 63.507 43.4883 62.8478C43.3984 63.9308 43.1011 64.9864 42.6124 65.957C45.2014 67.4877 48.1493 68.3061 51.1568 68.329C54.1643 68.3519 57.1243 67.5785 59.7363 66.0873C62.3482 64.5962 64.519 62.4404 66.0282 59.8389C67.5375 57.2374 68.3314 54.2828 68.3295 51.2752ZM61.575 60.6552C60.4311 59.6336 59.1409 58.7887 57.7472 58.1485C58.0369 56.3875 58.2116 54.6094 58.2702 52.8256H65.1372C64.8083 55.7467 63.5611 58.4881 61.575 60.6552ZM59.2362 62.7188C58.2081 63.4337 57.0882 64.0065 55.9068 64.4217C56.3827 63.406 56.7692 62.3509 57.0621 61.2682C57.8362 61.6732 58.565 62.1595 59.2362 62.7188ZM55.1683 49.7248H47.382C47.4378 48.0801 47.604 46.441 47.8793 44.8185C48.9937 45.0718 50.1324 45.202 51.2752 45.2069C52.4181 45.2049 53.5573 45.0761 54.6719 44.8231C54.9468 46.444 55.1126 48.0816 55.1683 49.7248ZM53.9846 41.7994C52.2001 42.1946 50.3506 42.1939 48.5663 41.7975C49.4109 38.9262 50.5165 37.3217 51.2752 37.3217C52.0341 37.3217 53.14 38.9268 53.9846 41.7994ZM45.6417 40.7507C44.9716 40.4099 44.3341 40.0083 43.7373 39.5511C44.6474 38.9654 45.6227 38.4881 46.6436 38.1287C46.2436 38.976 45.9087 39.8525 45.6417 40.7507ZM41.2829 41.5567C42.3787 42.4789 43.5978 43.2435 44.9051 43.8283C44.5528 45.7759 44.344 47.7466 44.2802 49.7248H37.4132C37.7577 46.6472 39.1196 43.7726 41.2829 41.5567ZM47.382 52.8256H55.1683C55.1192 54.2731 54.9866 55.7165 54.7711 57.1487C52.4706 56.6185 50.0798 56.6162 47.7782 57.142C47.5634 55.712 47.4311 54.2708 47.382 52.8256ZM48.4074 60.1788C50.2935 59.7319 52.2577 59.7293 54.145 60.1711C53.2846 63.4061 52.0835 65.2287 51.2752 65.2287C50.4675 65.2287 49.2677 63.4091 48.4074 60.1788Z" fill="black"/>
<path d="M22.593 67.5543H34.9961C36.4353 67.5543 37.8155 66.9826 38.8331 65.9649C39.8508 64.9473 40.4225 63.5671 40.4225 62.1279C40.4225 60.6887 39.8508 59.3085 38.8331 58.2909C37.8155 57.2733 36.4353 56.7016 34.9961 56.7016C34.9961 55.0568 34.3427 53.4794 33.1797 52.3164C32.0167 51.1534 30.4393 50.5 28.7946 50.5C27.1498 50.5 25.5724 51.1534 24.4094 52.3164C23.2464 53.4794 22.593 55.0568 22.593 56.7016C21.1539 56.7016 19.7736 57.2733 18.756 58.2909C17.7384 59.3085 17.1667 60.6887 17.1667 62.1279C17.1667 63.5671 17.7384 64.9473 18.756 65.9649C19.7736 66.9826 21.1539 67.5543 22.593 67.5543ZM20.9389 60.4859C21.378 60.048 21.9729 59.8022 22.593 59.8023H24.4144C24.6637 59.8023 24.9093 59.7422 25.1304 59.6271C25.3515 59.512 25.5416 59.3452 25.6845 59.141C25.8274 58.9368 25.919 58.7011 25.9515 58.454C25.9839 58.2068 25.9563 57.9555 25.8709 57.7213C25.7528 57.3943 25.6929 57.0492 25.6938 56.7016C25.6938 55.8792 26.0205 55.0905 26.602 54.509C27.1835 53.9275 27.9722 53.6008 28.7946 53.6008C29.6169 53.6008 30.4056 53.9275 30.9872 54.509C31.5687 55.0905 31.8953 55.8792 31.8953 56.7016C31.8963 57.0492 31.8363 57.3943 31.7182 57.7213C31.6328 57.9555 31.6052 58.2068 31.6377 58.454C31.6701 58.7011 31.7617 58.9368 31.9047 59.141C32.0476 59.3452 32.2377 59.512 32.4588 59.6271C32.6799 59.7422 32.9254 59.8023 33.1747 59.8023H34.9961C35.6129 59.8023 36.2044 60.0473 36.6406 60.4835C37.0767 60.9196 37.3217 61.5111 37.3217 62.1279C37.3217 62.7447 37.0767 63.3362 36.6406 63.7723C36.2044 64.2085 35.6129 64.4535 34.9961 64.4535H22.593C22.1338 64.4525 21.6852 64.3158 21.3034 64.0608C20.9216 63.8057 20.6236 63.4435 20.4469 63.0196C20.2702 62.5958 20.2226 62.1292 20.3102 61.6785C20.3977 61.2277 20.6164 60.8128 20.9389 60.4859Z" fill="black"/>
<path d="M93.9109 45.0737C90.2597 45.0737 87.7093 48.0367 87.7093 52.2783C87.7093 52.4555 87.728 52.6411 87.7446 52.8256H78.3597C78.2995 53.8653 78.1793 54.9006 77.9998 55.9264H88.4845C88.5085 55.9264 88.5309 55.9204 88.5547 55.9193C89.6451 58.4496 91.0259 60.8446 92.6693 63.056C92.8136 63.2492 93.001 63.406 93.2165 63.5141C93.432 63.6221 93.6698 63.6783 93.9109 63.6783C94.1519 63.6783 94.3897 63.6221 94.6052 63.5141C94.8208 63.406 95.0081 63.2492 95.1524 63.056C95.6603 62.377 100.112 56.3041 100.112 52.2783C100.112 48.0367 97.562 45.0737 93.9109 45.0737ZM93.9109 59.4011C92.4097 57.0733 90.8101 54.03 90.8101 52.2783C90.8101 49.7854 92.0274 48.1744 93.9109 48.1744C95.7943 48.1744 97.0116 49.7854 97.0116 52.2783C97.0116 54.03 95.412 57.0733 93.9109 59.4011Z" fill="black"/>
<path d="M93.9109 52.8256C94.7671 52.8256 95.4612 52.1314 95.4612 51.2752C95.4612 50.4189 94.7671 49.7248 93.9109 49.7248C93.0546 49.7248 92.3605 50.4189 92.3605 51.2752C92.3605 52.1314 93.0546 52.8256 93.9109 52.8256Z" fill="black"/>
<path d="M16.3915 69.1047H3.98837C3.16625 69.1055 2.37803 69.4324 1.7967 70.0138C1.21537 70.5951 0.888418 71.3833 0.887597 72.2055L0.887597 97.0117C0.888418 97.8338 1.21537 98.622 1.7967 99.2033C2.37803 99.7847 3.16625 100.112 3.98837 100.112H16.3915C17.2136 100.112 18.0018 99.7847 18.5831 99.2033C19.1645 98.622 19.4914 97.8338 19.4922 97.0117V72.2055C19.4914 71.3833 19.1645 70.5951 18.5831 70.0138C18.0018 69.4324 17.2136 69.1055 16.3915 69.1047ZM3.98837 97.0117V72.2055H16.3915L16.3937 97.0117H3.98837Z" fill="black"/>
<path d="M11.7403 92.3605H8.63953C8.22835 92.3605 7.834 92.5238 7.54325 92.8146C7.25249 93.1053 7.08915 93.4997 7.08915 93.9109C7.08915 94.322 7.25249 94.7164 7.54325 95.0072C7.834 95.2979 8.22835 95.4612 8.63953 95.4612H11.7403C12.1515 95.4612 12.5458 95.2979 12.8366 95.0072C13.1274 94.7164 13.2907 94.322 13.2907 93.9109C13.2907 93.4997 13.1274 93.1053 12.8366 92.8146C12.5458 92.5238 12.1515 92.3605 11.7403 92.3605Z" fill="black"/>
<path d="M10.1899 75.3062C10.6181 75.3062 10.9651 74.9591 10.9651 74.531C10.9651 74.1029 10.6181 73.7558 10.1899 73.7558C9.7618 73.7558 9.41473 74.1029 9.41473 74.531C9.41473 74.9591 9.7618 75.3062 10.1899 75.3062Z" fill="black"/>
<path d="M86.1589 17.9418C87.0152 17.9418 87.7093 17.2477 87.7093 16.3915C87.7093 15.5352 87.0152 14.8411 86.1589 14.8411C85.3027 14.8411 84.6085 15.5352 84.6085 16.3915C84.6085 17.2477 85.3027 17.9418 86.1589 17.9418Z" fill="black"/>
<path d="M89.4474 13.6117C89.5914 13.4678 89.7057 13.2969 89.7836 13.1088C89.8615 12.9207 89.9016 12.7191 89.9016 12.5155C89.9016 12.3119 89.8615 12.1103 89.7836 11.9222C89.7057 11.7341 89.5914 11.5633 89.4474 11.4193C88.5747 10.5482 87.392 10.059 86.1589 10.059C84.9258 10.059 83.7431 10.5482 82.8704 11.4193C82.5798 11.7101 82.4166 12.1043 82.4167 12.5154C82.4168 12.9265 82.5801 13.3207 82.8707 13.6113C83.1614 13.902 83.5556 14.0653 83.9667 14.0654C84.3777 14.0655 84.772 13.9023 85.0628 13.6117C85.358 13.3296 85.7506 13.1722 86.1589 13.1722C86.5672 13.1722 86.9599 13.3296 87.2551 13.6117C87.399 13.7557 87.5699 13.8699 87.758 13.9478C87.9461 14.0258 88.1477 14.0659 88.3513 14.0659C88.5549 14.0659 88.7565 14.0258 88.9446 13.9478C89.1326 13.8699 89.3035 13.7557 89.4474 13.6117Z" fill="black"/>
<path d="M92.3597 10.5775C92.673 10.5778 92.9791 10.483 93.2375 10.3058C93.496 10.1286 93.6946 9.87719 93.8073 9.5848C93.92 9.29242 93.9415 8.97274 93.8689 8.66792C93.7963 8.36309 93.633 8.08742 93.4006 7.87724C91.3926 6.13012 88.8206 5.16785 86.1589 5.16785C83.4972 5.16785 80.9252 6.13012 78.9172 7.87724C78.7662 8.01383 78.6436 8.17883 78.5563 8.36282C78.4691 8.54681 78.4189 8.74617 78.4087 8.94954C78.3881 9.36026 78.5316 9.76233 78.8074 10.0673C79.0833 10.3723 79.469 10.5552 79.8797 10.5758C80.2904 10.5964 80.6925 10.4529 80.9975 10.1771C82.4286 8.93156 84.2617 8.24553 86.1589 8.24553C88.0561 8.24553 89.8892 8.93156 91.3203 10.1771C91.605 10.4351 91.9755 10.5779 92.3597 10.5775Z" fill="black"/>
<path d="M22.593 16.3914C23.0042 16.3914 23.3985 16.2281 23.6893 15.9373C23.98 15.6466 24.1434 15.2522 24.1434 14.8411V2.43796C24.1434 2.02678 23.98 1.63244 23.6893 1.34169C23.3985 1.05094 23.0042 0.887594 22.593 0.887573L5.53876 0.887573C5.12758 0.887594 4.73324 1.05094 4.44249 1.34169C4.15174 1.63244 3.98839 2.02678 3.98837 2.43796V14.8411C3.98839 15.2522 4.15174 15.6466 4.44249 15.9373C4.73324 16.2281 5.12758 16.3914 5.53876 16.3914H22.593ZM7.08915 3.98835H21.0426V13.2907H7.08915V3.98835Z" fill="black"/>
<path d="M0.887597 19.4922C0.887617 19.9034 1.05097 20.2977 1.34172 20.5885C1.63247 20.8792 2.0268 21.0426 2.43798 21.0426H25.6938C26.105 21.0426 26.4993 20.8793 26.7901 20.5885C27.0808 20.2978 27.2442 19.9034 27.2442 19.4922C27.2442 19.081 27.0808 18.6867 26.7901 18.3959C26.4993 18.1052 26.105 17.9418 25.6938 17.9418H2.43798C2.0268 17.9419 1.63247 18.1052 1.34172 18.396C1.05097 18.6867 0.887617 19.081 0.887597 19.4922Z" fill="black"/>
<path d="M95.4612 98.562V93.9108C95.4612 93.4996 95.2979 93.1053 95.0071 92.8146C94.7164 92.5238 94.322 92.3605 93.9109 92.3604H90.0349V87.4807C91.284 87.1083 92.3573 86.2987 93.0586 85.2C93.7598 84.1013 94.0422 82.7869 93.854 81.4971C93.6658 80.2074 93.0197 79.0284 92.0337 78.1759C91.0478 77.3234 89.7879 76.8542 88.4845 76.8542C87.1811 76.8542 85.9212 77.3234 84.9352 78.1759C83.9493 79.0284 83.3032 80.2074 83.115 81.4971C82.9268 82.7869 83.2092 84.1013 83.9104 85.2C84.6117 86.2987 85.685 87.1083 86.9341 87.4807V92.3604H83.0581C82.647 92.3605 82.2526 92.5238 81.9619 92.8146C81.6711 93.1053 81.5078 93.4996 81.5078 93.9108V98.562C81.5078 98.9732 81.6711 99.3675 81.9619 99.6583C82.2526 99.949 82.647 100.112 83.0581 100.112H93.9109C94.322 100.112 94.7164 99.949 95.0071 99.6583C95.2979 99.3675 95.4612 98.9732 95.4612 98.562ZM86.1589 82.2829C86.1589 81.823 86.2953 81.3733 86.5508 80.9909C86.8064 80.6085 87.1696 80.3104 87.5945 80.1344C88.0195 79.9583 88.4871 79.9123 88.9382 80.002C89.3893 80.0918 89.8037 80.3132 90.1289 80.6385C90.4542 80.9637 90.6757 81.3781 90.7654 81.8292C90.8551 82.2803 90.8091 82.7479 90.6331 83.1729C90.457 83.5978 90.159 83.961 89.7765 84.2166C89.3941 84.4721 88.9445 84.6085 88.4845 84.6085C87.8679 84.6078 87.2768 84.3626 86.8408 83.9266C86.4048 83.4906 86.1596 82.8995 86.1589 82.2829ZM92.3605 97.0116H84.6085V95.4612H92.3605V97.0116Z" fill="black"/>
<path d="M98.0011 77.2132C97.8443 77.0829 97.6635 76.9848 97.4688 76.9245C97.2741 76.8641 97.0694 76.8428 96.8665 76.8616C96.6635 76.8805 96.4663 76.9391 96.286 77.0343C96.1058 77.1294 95.9461 77.2592 95.816 77.4161C95.6859 77.573 95.5881 77.7541 95.5281 77.9488C95.468 78.1436 95.447 78.3483 95.4661 78.5512C95.4853 78.7541 95.5443 78.9513 95.6397 79.1314C95.7351 79.3115 95.8651 79.471 96.0222 79.6009C96.3279 79.8161 96.5774 80.1018 96.7496 80.4336C96.9218 80.7655 97.0116 81.1339 97.0116 81.5078C97.0116 81.8817 96.9218 82.2501 96.7496 82.582C96.5774 82.9139 96.3279 83.1995 96.0222 83.4148C95.7063 83.6774 95.5075 84.0547 95.4695 84.4637C95.4316 84.8728 95.5575 85.2802 95.8196 85.5965C96.0818 85.9128 96.4587 86.1122 96.8677 86.1508C97.2768 86.1894 97.6844 86.0641 98.0011 85.8024C98.658 85.2957 99.19 84.6451 99.556 83.9006C99.9221 83.156 100.112 82.3375 100.112 81.5078C100.112 80.6782 99.9221 79.8596 99.556 79.115C99.19 78.3705 98.658 77.7199 98.0011 77.2132Z" fill="black"/>
<path d="M80.5456 86.3466C80.8522 86.3466 81.1519 86.2556 81.4068 86.0853C81.6617 85.9149 81.8604 85.6728 81.9777 85.3895C82.0951 85.1063 82.1258 84.7946 82.0659 84.4939C82.0061 84.1931 81.8585 83.9169 81.6417 83.7001C81.0611 83.1182 80.735 82.3298 80.735 81.5077C80.735 80.6857 81.0611 79.8973 81.6417 79.3154C81.9312 79.0244 82.0934 78.6305 82.0929 78.2201C82.0923 77.8097 81.929 77.4162 81.6388 77.126C81.3486 76.8358 80.9551 76.6725 80.5447 76.6719C80.1343 76.6714 79.7404 76.8336 79.4494 77.1231C78.2881 78.2868 77.636 79.8637 77.636 81.5077C77.636 83.1518 78.2881 84.7287 79.4494 85.8924C79.5932 86.0366 79.764 86.151 79.9522 86.2289C80.1403 86.3069 80.3419 86.3469 80.5456 86.3466Z" fill="black"/>
</g>
<defs>
<clipPath id="clip0_23_90">
<rect width="100" height="100" fill="white" transform="translate(0.5 0.5)"/>
</clipPath>
</defs>
</svg>
