<svg width="100" height="101" viewBox="0 0 100 101" fill="none" xmlns="http://www.w3.org/2000/svg">
<g clip-path="url(#clip0_26_138)">
<path d="M91.8182 7.16667H80.9091V5.5C80.9091 4.17392 80.3344 2.90215 79.3115 1.96447C78.2886 1.02678 76.9012 0.5 75.4545 0.5L24.5455 0.5C23.0988 0.5 21.7114 1.02678 20.6885 1.96447C19.6656 2.90215 19.0909 4.17392 19.0909 5.5V7.16667H8.18182C6.25297 7.16667 4.40312 7.86905 3.03922 9.11929C1.67532 10.3695 0.909088 12.0652 0.909088 13.8333V77.1667C0.909088 78.9348 1.67532 80.6305 3.03922 81.8807C4.40312 83.131 6.25297 83.8333 8.18182 83.8333H31.8182V88.8333H24.5455C23.0988 88.8333 21.7114 89.3601 20.6885 90.2978C19.6656 91.2355 19.0909 92.5072 19.0909 93.8333V97.1667C19.0909 98.0507 19.474 98.8986 20.156 99.5237C20.8379 100.149 21.7628 100.5 22.7273 100.5H77.2727C78.2371 100.5 79.1621 100.149 79.844 99.5237C80.526 98.8986 80.9091 98.0507 80.9091 97.1667V93.8333C80.9091 92.5072 80.3344 91.2355 79.3115 90.2978C78.2886 89.3601 76.9012 88.8333 75.4545 88.8333H68.1818V83.8333H91.8182C93.747 83.8333 95.5969 83.131 96.9608 81.8807C98.3247 80.6305 99.0909 78.9348 99.0909 77.1667V13.8333C99.0909 12.0652 98.3247 10.3695 96.9608 9.11929C95.5969 7.86905 93.747 7.16667 91.8182 7.16667ZM24.5455 57.1667H75.4545C76.9012 57.1667 78.2886 56.6399 79.3115 55.7022C80.3344 54.7645 80.9091 53.4927 80.9091 52.1667V17.1667H88.1818V60.5H11.8182V17.1667H19.0909V52.1667C19.0909 53.4927 19.6656 54.7645 20.6885 55.7022C21.7114 56.6399 23.0988 57.1667 24.5455 57.1667ZM22.7273 5.5C22.7273 5.05797 22.9188 4.63405 23.2598 4.32149C23.6008 4.00893 24.0632 3.83333 24.5455 3.83333H75.4545C75.9368 3.83333 76.3992 4.00893 76.7402 4.32149C77.0812 4.63405 77.2727 5.05797 77.2727 5.5V52.1667C77.2727 52.6087 77.0812 53.0326 76.7402 53.3452C76.3992 53.6577 75.9368 53.8333 75.4545 53.8333H24.5455C24.0632 53.8333 23.6008 53.6577 23.2598 53.3452C22.9188 53.0326 22.7273 52.6087 22.7273 52.1667V5.5ZM8.18182 10.5H19.0909V13.8333H11.8182C10.8538 13.8333 9.92883 14.1845 9.24688 14.8096C8.56493 15.4348 8.18182 16.2826 8.18182 17.1667V60.5C8.18182 61.3841 8.56493 62.2319 9.24688 62.857C9.92883 63.4821 10.8538 63.8333 11.8182 63.8333H88.1818C89.1462 63.8333 90.0712 63.4821 90.7531 62.857C91.4351 62.2319 91.8182 61.3841 91.8182 60.5V17.1667C91.8182 16.2826 91.4351 15.4348 90.7531 14.8096C90.0712 14.1845 89.1462 13.8333 88.1818 13.8333H80.9091V10.5H91.8182C92.7826 10.5 93.7075 10.8512 94.3895 11.4763C95.0714 12.1014 95.4545 12.9493 95.4545 13.8333V67.1667H4.54545V13.8333C4.54545 12.9493 4.92857 12.1014 5.61052 11.4763C6.29247 10.8512 7.21739 10.5 8.18182 10.5ZM77.2727 93.8333V97.1667H22.7273V93.8333C22.7273 93.3913 22.9188 92.9674 23.2598 92.6548C23.6008 92.3423 24.0632 92.1667 24.5455 92.1667H75.4545C75.9368 92.1667 76.3992 92.3423 76.7402 92.6548C77.0812 92.9674 77.2727 93.3913 77.2727 93.8333ZM64.5454 88.8333H35.4545V83.8333H64.5454V88.8333ZM91.8182 80.5H8.18182C7.21739 80.5 6.29247 80.1488 5.61052 79.5237C4.92857 78.8986 4.54545 78.0507 4.54545 77.1667V70.5H95.4545V77.1667C95.4545 78.0507 95.0714 78.8986 94.3895 79.5237C93.7075 80.1488 92.7826 80.5 91.8182 80.5Z" fill="black"/>
<path d="M35.4546 47.1666C37.3834 47.1666 39.2332 46.4643 40.5971 45.214C41.961 43.9638 42.7273 42.2681 42.7273 40.5V28.5133L64.5455 24.2283V34.76C63.4448 34.1601 62.1896 33.8402 60.9091 33.8333C59.4707 33.8333 58.0646 34.2243 56.8686 34.9568C55.6726 35.6894 54.7404 36.7306 54.19 37.9488C53.6395 39.1669 53.4955 40.5074 53.7761 41.8006C54.0567 43.0938 54.7494 44.2817 55.7665 45.214C56.7836 46.1464 58.0795 46.7813 59.4903 47.0385C60.901 47.2958 62.3633 47.1638 63.6923 46.6592C65.0212 46.1546 66.157 45.3001 66.9561 44.2038C67.7553 43.1075 68.1818 41.8185 68.1818 40.5V13.8333C68.1825 13.3332 68.0604 12.8394 67.8246 12.3884C67.5888 11.9374 67.2454 11.5408 66.8196 11.228C66.3939 10.9153 65.8969 10.6943 65.3654 10.5816C64.8338 10.4688 64.2814 10.4671 63.7491 10.5766L41.96 15.255C41.1491 15.4198 40.4235 15.8324 39.9021 16.4251C39.3808 17.0178 39.0947 17.7553 39.0909 18.5166V34.76C37.9903 34.1601 36.735 33.8402 35.4546 33.8333C33.5257 33.8333 31.6759 34.5357 30.312 35.7859C28.9481 37.0362 28.1818 38.7319 28.1818 40.5C28.1818 42.2681 28.9481 43.9638 30.312 45.214C31.6759 46.4643 33.5257 47.1666 35.4546 47.1666ZM60.9091 43.8333C60.1899 43.8333 59.4868 43.6378 58.8888 43.2715C58.2908 42.9053 57.8248 42.3847 57.5495 41.7756C57.2743 41.1665 57.2023 40.4963 57.3426 39.8497C57.4829 39.2031 57.8292 38.6091 58.3378 38.143C58.8464 37.6768 59.4943 37.3593 60.1997 37.2307C60.9051 37.1021 61.6362 37.1681 62.3007 37.4204C62.9651 37.6727 63.5331 38.0999 63.9326 38.6481C64.3322 39.1962 64.5455 39.8407 64.5455 40.5C64.5455 41.384 64.1623 42.2319 63.4804 42.857C62.7984 43.4821 61.8735 43.8333 60.9091 43.8333ZM42.7618 18.5L64.5455 13.8333V20.8233L42.7273 25.1033L42.7618 18.5ZM35.4546 37.1666C36.1738 37.1666 36.8768 37.3621 37.4748 37.7284C38.0728 38.0947 38.5389 38.6153 38.8141 39.2244C39.0893 39.8335 39.1614 40.5037 39.021 41.1503C38.8807 41.7969 38.5344 42.3908 38.0258 42.857C37.5173 43.3232 36.8694 43.6406 36.164 43.7693C35.4586 43.8979 34.7274 43.8319 34.063 43.5796C33.3985 43.3273 32.8306 42.9 32.431 42.3519C32.0315 41.8037 31.8182 41.1593 31.8182 40.5C31.8182 39.6159 32.2013 38.7681 32.8833 38.143C33.5652 37.5178 34.4901 37.1666 35.4546 37.1666Z" fill="black"/>
<path d="M51.8182 73.8333H48.1818C47.6996 73.8333 47.2372 74.0089 46.8962 74.3215C46.5552 74.634 46.3636 75.058 46.3636 75.5C46.3636 75.942 46.5552 76.3659 46.8962 76.6785C47.2372 76.9911 47.6996 77.1666 48.1818 77.1666H51.8182C52.3004 77.1666 52.7629 76.9911 53.1038 76.6785C53.4448 76.3659 53.6364 75.942 53.6364 75.5C53.6364 75.058 53.4448 74.634 53.1038 74.3215C52.7629 74.0089 52.3004 73.8333 51.8182 73.8333Z" fill="black"/>
</g>
<defs>
<clipPath id="clip0_26_138">
<rect width="100" height="100" fill="white" transform="translate(0 0.5)"/>
</clipPath>
</defs>
</svg>
