<svg viewBox="0 0 44 44" fill="none" xmlns="http://www.w3.org/2000/svg">
<g clip-path="url(#clip0_26_131)">
<path d="M42 16C41.5175 15.9985 41.0383 15.9208 40.58 15.77L40.41 15.71C39.21 15.3 38.13 13.93 37.27 13.11L29.65 20.74C28.8053 21.5847 27.6596 22.0593 26.465 22.0593C25.2704 22.0593 24.1247 21.5847 23.28 20.74C22.4353 19.8953 21.9607 18.7496 21.9607 17.555C21.9607 16.3604 22.4353 15.2147 23.28 14.37L30.91 6.75002C30.07 5.88002 28.62 4.70002 28.26 3.50002V3.43002C27.9453 2.50266 27.9453 1.49738 28.26 0.570019V0.52002H4C3.0752 0.520004 2.18798 0.886006 1.53217 1.53806C0.876365 2.19012 0.505285 3.07523 0.5 4.00002V40C0.5 40.9283 0.868749 41.8185 1.52513 42.4749C2.1815 43.1313 3.07174 43.5 4 43.5H40C40.9283 43.5 41.8185 43.1313 42.4749 42.4749C43.1312 41.8185 43.5 40.9283 43.5 40V15.77H43.44C42.9765 15.9279 42.4896 16.0057 42 16Z" fill="black"/>
<path d="M43.39 1.45C43.2811 1.16997 43.0901 0.929395 42.842 0.759858C42.594 0.590321 42.3005 0.499739 42 0.500001H32.48C32.1856 0.50487 31.8991 0.595699 31.6556 0.76131C31.4122 0.926921 31.2225 1.16009 31.1098 1.43212C30.9972 1.70415 30.9666 2.00318 31.0217 2.29241C31.0768 2.58164 31.2152 2.84845 31.42 3.06L35.12 6.76L25.38 16.5C25.2326 16.6373 25.1144 16.8029 25.0324 16.9869C24.9505 17.1709 24.9064 17.3695 24.9028 17.571C24.8993 17.7724 24.9363 17.9724 25.0118 18.1592C25.0872 18.346 25.1995 18.5156 25.3419 18.6581C25.4844 18.8005 25.654 18.9128 25.8408 18.9882C26.0276 19.0637 26.2276 19.1007 26.4291 19.0972C26.6305 19.0936 26.8291 19.0495 27.0131 18.9676C27.1971 18.8856 27.3627 18.7674 27.5 18.62L37.24 8.88L40.94 12.58C41.1516 12.7848 41.4184 12.9232 41.7076 12.9783C41.9968 13.0335 42.2958 13.0028 42.5679 12.8902C42.8399 12.7775 43.0731 12.5878 43.2387 12.3444C43.4043 12.1009 43.4951 11.8144 43.5 11.52V2C43.4992 1.81128 43.4619 1.6245 43.39 1.45Z" fill="black"/>
</g>
</svg>
